<svg width="120" height="40" viewBox="0 0 120 40" fill="none" xmlns="http://www.w3.org/2000/svg">
<mask id="mask0" mask-type="alpha" maskUnits="userSpaceOnUse" x="27" y="17" width="11" height="13">
<path fill-rule="evenodd" clip-rule="evenodd" d="M31.5379 17.312H29.442C28.2773 17.312 27.3334 18.2808 27.3334 19.4761V19.4761V29.3054C27.3334 29.4538 27.3899 29.583 27.4784 29.6778V29.6778C27.4971 29.6979 27.5171 29.7163 27.5385 29.7332V29.7332C27.5398 29.7341 27.5413 29.7351 27.5427 29.7363V29.7363C27.5614 29.7507 27.5814 29.7639 27.6019 29.7757V29.7757C27.6071 29.7789 27.6125 29.7816 27.6177 29.7845V29.7845C27.6354 29.794 27.6536 29.8023 27.6722 29.8098V29.8098C27.6781 29.8122 27.6838 29.8145 27.6898 29.8167V29.8167C27.7121 29.8247 27.7345 29.831 27.7575 29.8359V29.8359C27.7595 29.8363 27.7617 29.8372 27.7638 29.8374V29.8374C27.7888 29.8425 27.8142 29.8451 27.8399 29.8461V29.8461C27.8472 29.8465 27.8544 29.846 27.8616 29.846V29.846C27.8801 29.846 27.8985 29.8451 27.917 29.8429V29.8429C27.9263 29.842 27.9354 29.8406 27.9447 29.8389V29.8389C27.9625 29.836 27.9798 29.8319 27.9973 29.827V29.827C28.0061 29.8247 28.0148 29.8225 28.0235 29.8194V29.8194C28.0476 29.8113 28.0716 29.8015 28.0954 29.7894V29.7894C28.0969 29.7886 28.0984 29.7881 28.0997 29.7875V29.7875L30.6075 28.4762C30.9038 28.3213 31.232 28.2404 31.5646 28.2404V28.2404H35.8731C37.0375 28.2404 37.9817 27.2714 37.9817 26.0765V26.0765V25.531V19.4761C37.9817 19.4011 37.9778 19.327 37.9706 19.2539V19.2539C37.9694 19.2435 37.9672 19.2332 37.966 19.2228V19.2228C37.9588 19.1603 37.9504 19.0985 37.9383 19.038V19.038C37.9368 19.0305 37.9343 19.0235 37.9328 19.016V19.016C37.9193 18.9529 37.9042 18.8904 37.8858 18.8295V18.8295C37.8846 18.8261 37.8833 18.8231 37.8824 18.8199V18.8199C37.778 18.4832 37.5958 18.1822 37.357 17.9393V17.9393L37.356 17.9384C36.975 17.5512 36.4513 17.312 35.8731 17.312V17.312H31.5379Z" fill="white"/>
</mask>
<g mask="url(#mask0)">
<path fill-rule="evenodd" clip-rule="evenodd" d="M31.5379 17.312H29.442C28.2773 17.312 27.3334 18.2808 27.3334 19.4761V19.4761V29.3054C27.3334 29.4538 27.3899 29.583 27.4784 29.6778V29.6778C27.4971 29.6979 27.5171 29.7163 27.5385 29.7332V29.7332C27.5398 29.7341 27.5413 29.7351 27.5427 29.7363V29.7363C27.5614 29.7507 27.5814 29.7639 27.6019 29.7757V29.7757C27.6071 29.7789 27.6125 29.7816 27.6177 29.7845V29.7845C27.6354 29.794 27.6536 29.8023 27.6722 29.8098V29.8098C27.6781 29.8122 27.6838 29.8145 27.6898 29.8167V29.8167C27.7121 29.8247 27.7345 29.831 27.7575 29.8359V29.8359C27.7595 29.8363 27.7617 29.8372 27.7638 29.8374V29.8374C27.7888 29.8425 27.8142 29.8451 27.8399 29.8461V29.8461C27.8472 29.8465 27.8544 29.846 27.8616 29.846V29.846C27.8801 29.846 27.8985 29.8451 27.917 29.8429V29.8429C27.9263 29.842 27.9354 29.8406 27.9447 29.8389V29.8389C27.9625 29.836 27.9798 29.8319 27.9973 29.827V29.827C28.0061 29.8247 28.0148 29.8225 28.0235 29.8194V29.8194C28.0476 29.8113 28.0716 29.8015 28.0954 29.7894V29.7894C28.0969 29.7886 28.0984 29.7881 28.0997 29.7875V29.7875L30.6075 28.4762C30.9038 28.3213 31.232 28.2404 31.5646 28.2404V28.2404H35.8731C37.0375 28.2404 37.9817 27.2714 37.9817 26.0765V26.0765V25.531V19.4761C37.9817 19.4011 37.9778 19.327 37.9706 19.2539V19.2539C37.9694 19.2435 37.9672 19.2332 37.966 19.2228V19.2228C37.9588 19.1603 37.9504 19.0985 37.9383 19.038V19.038C37.9368 19.0305 37.9343 19.0235 37.9328 19.016V19.016C37.9193 18.9529 37.9042 18.8904 37.8858 18.8295V18.8295C37.8846 18.8261 37.8833 18.8231 37.8824 18.8199V18.8199C37.778 18.4832 37.5958 18.1822 37.357 17.9393V17.9393L37.356 17.9384C36.975 17.5512 36.4513 17.312 35.8731 17.312V17.312H31.5379Z" fill="url(#paint0_linear)"/>
</g>
<mask id="mask1" mask-type="alpha" maskUnits="userSpaceOnUse" x="31" y="10" width="16" height="18">
<path fill-rule="evenodd" clip-rule="evenodd" d="M34.4059 10.6665C33.6192 10.6665 32.9072 10.9921 32.389 11.5184V11.5184L32.3875 11.5199C32.0628 11.8501 31.8149 12.2597 31.6731 12.7177V12.7177C31.6716 12.7218 31.6697 12.726 31.6684 12.7304V12.7304C31.6431 12.8133 31.6225 12.8983 31.6044 12.9842V12.9842C31.6023 12.9943 31.599 13.0038 31.5967 13.0141V13.0141C31.5805 13.0965 31.5688 13.1808 31.5591 13.2656V13.2656C31.5576 13.2797 31.5544 13.2935 31.5529 13.308V13.308C31.5429 13.4072 31.5378 13.508 31.5378 13.6101V13.6101V17.3121V22.5877C31.5378 24.2133 32.8219 25.5311 34.4059 25.5311V25.5311H37.9816H40.2662C40.7187 25.5311 41.1649 25.6411 41.5681 25.8519V25.8519L44.979 27.6352C44.9808 27.6363 44.9829 27.6369 44.9847 27.6378V27.6378C45.0171 27.6544 45.0497 27.6677 45.0826 27.6789V27.6789C45.0944 27.6829 45.1062 27.6857 45.1181 27.6889V27.6889C45.1421 27.6956 45.166 27.7013 45.19 27.7055V27.7055C45.2024 27.7076 45.2148 27.7094 45.2272 27.7108V27.7108C45.2526 27.7136 45.2779 27.715 45.3028 27.715V27.715C45.3127 27.715 45.3226 27.7156 45.3324 27.7151V27.7151C45.3673 27.7136 45.402 27.7099 45.4359 27.7033V27.7033C45.4389 27.7027 45.4416 27.7018 45.4446 27.701V27.701C45.4758 27.6947 45.5065 27.6858 45.5365 27.6749V27.6749C45.5446 27.6722 45.5527 27.6688 45.5607 27.6656V27.6656C45.5858 27.6554 45.6107 27.6441 45.6346 27.631V27.631C45.6419 27.6272 45.6492 27.6235 45.6563 27.6195V27.6195C45.6842 27.6031 45.7111 27.5853 45.7367 27.5655V27.5655C45.7385 27.5641 45.7404 27.5629 45.7422 27.5615V27.5615C45.7712 27.5385 45.7987 27.5134 45.8242 27.486V27.486C45.9445 27.357 46.0214 27.1816 46.0214 26.9797V26.9797V13.6099C46.0214 11.9844 44.7373 10.6665 43.1534 10.6665V10.6665H34.4059Z" fill="white"/>
</mask>
<g mask="url(#mask1)">
<path fill-rule="evenodd" clip-rule="evenodd" d="M34.4059 10.6665C33.6192 10.6665 32.9072 10.9921 32.389 11.5184V11.5184L32.3875 11.5199C32.0628 11.8501 31.8149 12.2597 31.6731 12.7177V12.7177C31.6716 12.7218 31.6697 12.726 31.6684 12.7304V12.7304C31.6431 12.8133 31.6225 12.8983 31.6044 12.9842V12.9842C31.6023 12.9943 31.599 13.0038 31.5967 13.0141V13.0141C31.5805 13.0965 31.5688 13.1808 31.5591 13.2656V13.2656C31.5576 13.2797 31.5544 13.2935 31.5529 13.308V13.308C31.5429 13.4072 31.5378 13.508 31.5378 13.6101V13.6101V17.3121V22.5877C31.5378 24.2133 32.8219 25.5311 34.4059 25.5311V25.5311H37.9816H40.2662C40.7187 25.5311 41.1649 25.6411 41.5681 25.8519V25.8519L44.979 27.6352C44.9808 27.6363 44.9829 27.6369 44.9847 27.6378V27.6378C45.0171 27.6544 45.0497 27.6677 45.0826 27.6789V27.6789C45.0944 27.6829 45.1062 27.6857 45.1181 27.6889V27.6889C45.1421 27.6956 45.166 27.7013 45.19 27.7055V27.7055C45.2024 27.7076 45.2148 27.7094 45.2272 27.7108V27.7108C45.2526 27.7136 45.2779 27.715 45.3028 27.715V27.715C45.3127 27.715 45.3226 27.7156 45.3324 27.7151V27.7151C45.3673 27.7136 45.402 27.7099 45.4359 27.7033V27.7033C45.4389 27.7027 45.4416 27.7018 45.4446 27.701V27.701C45.4758 27.6947 45.5065 27.6858 45.5365 27.6749V27.6749C45.5446 27.6722 45.5527 27.6688 45.5607 27.6656V27.6656C45.5858 27.6554 45.6107 27.6441 45.6346 27.631V27.631C45.6419 27.6272 45.6492 27.6235 45.6563 27.6195V27.6195C45.6842 27.6031 45.7111 27.5853 45.7367 27.5655V27.5655C45.7385 27.5641 45.7404 27.5629 45.7422 27.5615V27.5615C45.7712 27.5385 45.7987 27.5134 45.8242 27.486V27.486C45.9445 27.357 46.0214 27.1816 46.0214 26.9797V26.9797V13.6099C46.0214 11.9844 44.7373 10.6665 43.1534 10.6665V10.6665H34.4059Z" fill="url(#paint1_linear)"/>
</g>
<mask id="mask2" mask-type="alpha" maskUnits="userSpaceOnUse" x="31" y="17" width="7" height="9">
<path fill-rule="evenodd" clip-rule="evenodd" d="M31.5378 17.312V22.5876C31.5378 24.2131 32.8219 25.531 34.4059 25.531V25.531H37.9816V19.4761C37.9816 19.4011 37.9777 19.327 37.9706 19.2539V19.2539C37.9694 19.2435 37.9671 19.2332 37.9659 19.2228V19.2228C37.9588 19.1603 37.9504 19.0985 37.9383 19.038V19.038C37.9368 19.0305 37.9342 19.0235 37.9329 19.016V19.016C37.9193 18.9529 37.9042 18.8904 37.8858 18.8295V18.8295C37.8846 18.8261 37.8833 18.8231 37.8824 18.8199V18.8199C37.778 18.4832 37.5958 18.1822 37.357 17.9393V17.9393L37.3559 17.9384C36.975 17.5512 36.4513 17.312 35.873 17.312V17.312H31.5378Z" fill="white"/>
</mask>
<g mask="url(#mask2)">
<path fill-rule="evenodd" clip-rule="evenodd" d="M31.5378 17.312V22.5876C31.5378 24.2131 32.8219 25.531 34.4059 25.531V25.531H37.9816V19.4761C37.9816 19.4011 37.9777 19.327 37.9706 19.2539V19.2539C37.9694 19.2435 37.9671 19.2332 37.9659 19.2228V19.2228C37.9588 19.1603 37.9504 19.0985 37.9383 19.038V19.038C37.9368 19.0305 37.9342 19.0235 37.9329 19.016V19.016C37.9193 18.9529 37.9042 18.8904 37.8858 18.8295V18.8295C37.8846 18.8261 37.8833 18.8231 37.8824 18.8199V18.8199C37.778 18.4832 37.5958 18.1822 37.357 17.9393V17.9393L37.3559 17.9384C36.975 17.5512 36.4513 17.312 35.873 17.312V17.312H31.5378Z" fill="url(#paint2_linear)"/>
</g>
<path fill-rule="evenodd" clip-rule="evenodd" d="M62.3697 27.7155C61.6225 27.7155 61.0167 27.0938 61.0167 26.3267V14.6391C61.0167 13.8721 61.6225 13.2505 62.3697 13.2505C63.117 13.2505 63.7227 13.8721 63.7227 14.6391V26.3267C63.7227 27.0938 63.117 27.7155 62.3697 27.7155" fill="#333333"/>
<path fill-rule="evenodd" clip-rule="evenodd" d="M54.2516 27.7155C53.5044 27.7155 52.8986 27.0938 52.8986 26.3267V14.6391C52.8986 13.8721 53.5044 13.2505 54.2516 13.2505C54.9988 13.2505 55.6046 13.8721 55.6046 14.6391V26.3267C55.6046 27.0938 54.9988 27.7155 54.2516 27.7155" fill="#333333"/>
<path fill-rule="evenodd" clip-rule="evenodd" d="M78.5819 27.7155C77.8346 27.7155 77.2288 27.0938 77.2288 26.3267V14.6391C77.2288 13.8721 77.8346 13.2505 78.5819 13.2505C79.3291 13.2505 79.9349 13.8721 79.9349 14.6391V26.3267C79.9349 27.0938 79.3291 27.7155 78.5819 27.7155" fill="#333333"/>
<path fill-rule="evenodd" clip-rule="evenodd" d="M62.3698 21.8716H54.2516C53.5044 21.8716 52.8986 21.2499 52.8986 20.483C52.8986 19.716 53.5044 19.0942 54.2516 19.0942H62.3698C63.117 19.0942 63.7228 19.716 63.7228 20.483C63.7228 21.2499 63.117 21.8716 62.3698 21.8716" fill="#333333"/>
<path fill-rule="evenodd" clip-rule="evenodd" d="M86.9525 18.921C85.3359 18.921 84.0208 20.2706 84.0208 21.9296C84.0208 23.5888 85.3359 24.9384 86.9525 24.9384C88.5689 24.9384 89.8839 23.5888 89.8839 21.9296C89.8839 20.2706 88.5689 18.921 86.9525 18.921M86.9525 27.7156C83.8438 27.7156 81.3148 25.1201 81.3148 21.9296C81.3148 18.7391 83.8438 16.1436 86.9525 16.1436C90.061 16.1436 92.59 18.7391 92.59 21.9296C92.59 25.1201 90.061 27.7156 86.9525 27.7156" fill="#333333"/>
<path fill-rule="evenodd" clip-rule="evenodd" d="M70.7134 27.7156C67.6048 27.7156 65.0759 25.1201 65.0759 21.9296C65.0759 18.7391 67.4562 16.1436 70.5648 16.1436C73.4985 16.1436 75.6046 18.0904 75.8715 21.0858C75.9393 21.8497 75.3913 22.5252 74.6472 22.5951C73.9049 22.6672 73.2445 22.1025 73.1765 21.3385C73.0379 19.7824 71.9383 18.921 70.4126 18.921C68.7963 18.921 67.782 20.2706 67.782 21.9296C67.782 23.5887 69.097 24.9382 70.7134 24.9382C71.4536 24.9382 72.6196 24.3688 73.1626 23.8533C73.7111 23.3326 74.5669 23.3667 75.0746 23.9297C75.582 24.4928 75.4922 25.3149 75 25.892C74.0243 27.0365 72.1369 27.7156 70.7134 27.7156" fill="#333333"/>
<path fill-rule="evenodd" clip-rule="evenodd" d="M74.4472 22.6016H67.2193C66.663 22.6016 66.2119 22.1387 66.2119 21.5677C66.2119 20.9966 66.663 20.5337 67.2193 20.5337H74.4472C75.0037 20.5337 75.4546 20.9966 75.4546 21.5677C75.4546 22.1387 75.0037 22.6016 74.4472 22.6016" fill="#333333"/>
<defs>
<linearGradient id="paint0_linear" x1="26.0501" y1="14.8882" x2="26.0501" y2="30.4435" gradientUnits="userSpaceOnUse">
<stop stop-color="#FFE102"/>
<stop offset="1" stop-color="#FF7B33"/>
</linearGradient>
<linearGradient id="paint1_linear" x1="31.579" y1="10.6155" x2="31.579" y2="27.5676" gradientUnits="userSpaceOnUse">
<stop stop-color="#F4901D"/>
<stop offset="1" stop-color="#FF0000"/>
</linearGradient>
<linearGradient id="paint2_linear" x1="31.5561" y1="17.2874" x2="31.5561" y2="25.4598" gradientUnits="userSpaceOnUse">
<stop stop-color="#EF5923"/>
<stop offset="1" stop-color="#EB1C23"/>
</linearGradient>
</defs>
</svg>
