<svg width="120" height="40" viewBox="0 0 120 40" fill="none" xmlns="http://www.w3.org/2000/svg">
<path d="M86.4167 27.1237V13.3975H84.876V27.1237H86.4167Z" fill="#3568D4"/>
<path d="M75.9324 20.84L76.1526 18.4473H81.4348C81.7811 18.4473 82.064 18.164 82.064 17.8177V13.4102H74.6745L74.5484 14.7324H80.5546V16.9677C80.5546 17.0621 80.4913 17.1251 80.3972 17.1251H74.8L74.3916 22.1622H80.6174V25.6567C80.6174 25.7512 80.5546 25.8142 80.4599 25.8142H75.3659L75.2404 27.1365H81.5609C81.9066 27.1365 82.1895 26.8531 82.1895 26.5068V20.84H75.9324Z" fill="#3568D4"/>
<path d="M96.4341 23.1695H101.78V22.1306H96.4341V21.2806H101.433V20.2417H89.5792V21.2806H94.9248V22.1306H89.1074V23.1695H94.8934V23.9566H88.699V24.9955H94.8934V26.0974C94.8934 26.1918 94.8306 26.2548 94.7359 26.2548H93.5409L93.4467 27.1363H95.7736C96.1198 27.1363 96.4028 26.8529 96.4028 26.5066V24.9955H101.968V23.9566H96.4028V23.1695H96.4341Z" fill="#3568D4"/>
<path d="M89.7993 14.9528H91.3087V14.638H92.7868V14.9528H94.2955V14.638H95.3332V13.7565H94.2955V13.4102H92.7868V13.7565H91.3087V13.4102H89.7993V13.7565H88.667V14.638H89.7993V14.9528Z" fill="#3568D4"/>
<path d="M93.8557 18.6676H90.554L90.6168 17.9435H93.0063V17.062H89.2962L88.9819 19.5491H94.862C95.2077 19.5491 95.4906 19.2658 95.4906 18.9195V15.5194H90.2077L90.3025 15.2676H88.9819L88.5729 16.4009H93.9499V18.5102C94.0126 18.6046 93.9499 18.6676 93.8557 18.6676Z" fill="#3568D4"/>
<path d="M101.968 14.638C101.968 14.5435 102 14.4491 102 14.3546C102 14.2917 102 13.7565 102 13.7565H97.5345L97.692 13.4102H96.3714L95.8997 14.638H100.647C100.616 14.9214 100.365 16.1177 99.0753 17.1251C98.1004 16.338 97.9122 15.488 97.9122 15.488H96.5596C96.8426 16.464 97.3771 17.2195 98.0063 17.7862C97.5032 18.0381 96.9059 18.2269 96.1826 18.3844V19.5492C96.1826 19.5492 97.6606 19.4233 99.1067 18.6048C100.522 19.3918 101.968 19.5492 101.968 19.5492V18.3529C101.245 18.2269 100.679 18.0381 100.176 17.8177C100.239 17.8492 100.585 17.4084 100.647 17.3769C100.805 17.2195 100.93 17.0306 101.056 16.8418C101.339 16.4325 101.56 15.9917 101.716 15.5195C101.843 15.2361 101.937 14.9528 101.968 14.638Z" fill="#3568D4"/>
<path d="M69.5179 15.8974H61.8138L61.7195 14.9844H69.612L69.5179 15.8974Z" fill="#3568D4"/>
<path d="M69.7695 22.0363H61.7194L61.6251 21.1548H69.8322L69.7695 22.0363Z" fill="#3568D4"/>
<path d="M72.2531 18.1011H59.2982V18.9826H72.2531V18.1011Z" fill="#3568D4"/>
<path d="M71.876 24.4287H59.6125V25.3102H71.876V24.4287Z" fill="#3568D4"/>
<path d="M72.2531 26.2549H59.2982V27.1364H72.2531V26.2549Z" fill="#3568D4"/>
<path d="M66.6287 26.9306V19.9102H65.088V26.9306H66.6287Z" fill="#3568D4"/>
<path d="M59.5497 19.5806V23.6103H71.2467C71.593 23.6103 71.876 23.327 71.876 22.9806V19.5806H59.5497ZM61.0904 22.6973V20.525H70.3352V22.5399C70.3352 22.6343 70.2405 22.7288 70.1464 22.7288H61.0904V22.6973Z" fill="#3568D4"/>
<path d="M59.7069 13.4102V17.5029H71.0585C71.4042 17.5029 71.6872 17.2195 71.6872 16.8733V13.4102H59.7069ZM70.1464 16.4639C70.1464 16.5269 70.0837 16.5899 70.0209 16.5899H61.1848V14.2917H70.1464V16.4639Z" fill="#3568D4"/>
<path d="M45.9344 25.5938V14.7324H57.3487V13.4102L44.3936 13.4416V26.5382C44.3936 26.8846 44.6765 27.1679 45.0225 27.1679H57.3487V25.8142H46.1545C46.0287 25.8142 45.9344 25.7197 45.9344 25.5938Z" fill="#3568D4"/>
<path d="M45.7771 17.4399L45.6514 18.7622H55.2104L55.0847 21.6901C55.0847 21.753 55.0218 21.816 54.9589 21.816H46.4689L46.6261 23.1382H56.1538C56.3739 23.1382 56.5626 22.9808 56.5626 22.7605L56.8141 17.4714H45.7771V17.4399Z" fill="#3568D4"/>
<path d="M28.1624 11.8892L29.4131 16.1162H19.4386L20.7206 11.8892H28.1624Z" fill="#78E5DB"/>
<path d="M21.7211 16.8931L26.0048 17.9188L21.0333 26.4972L18.0002 23.2959L21.7211 16.8931Z" fill="#3568D4"/>
<path d="M22.8468 24.9431L25.8798 21.7417L30.8827 30.3201L26.5677 31.3458L22.8468 24.9431Z" fill="#325AB3"/>
<path d="M37.8554 27.9582H30.4137L29.163 23.7622H39.1374" fill="#3568D4"/>
<path d="M40.5757 16.5512L36.8548 22.985L32.5712 21.9594L37.5428 13.3809" fill="#3C8BFF"/>
<path d="M35.7292 14.935L32.6962 18.1364L27.6934 9.52684L32.0083 8.53223L35.7292 14.935Z" fill="#00C7D1"/>
</svg>
