<svg width="120" height="40" viewBox="0 0 120 40" fill="none" xmlns="http://www.w3.org/2000/svg">
<mask id="mask0" mask-type="alpha" maskUnits="userSpaceOnUse" x="35" y="13" width="9" height="12">
<path fill-rule="evenodd" clip-rule="evenodd" d="M35.6544 13.9644V24.8506H39.6419C40.6511 24.8506 41.5074 24.5506 42.1873 23.959V23.959C42.8726 23.3628 43.22 22.6171 43.22 21.7434V21.7434C43.22 21.0424 43.0389 20.4437 42.6814 19.9634V19.9634C42.3729 19.5479 41.9363 19.2244 41.3805 18.9988V18.9988C41.6881 18.7862 41.9353 18.5276 42.1193 18.2278V18.2278C42.3508 17.8505 42.4681 17.4294 42.4681 16.9768V16.9768C42.4681 16.4342 42.3421 15.94 42.0939 15.5078V15.5078C41.8464 15.0753 41.48 14.7129 41.0052 14.4309V14.4309C40.7257 14.2651 40.3717 14.1438 39.9532 14.0713V14.0713C39.5415 14.0003 38.9787 13.9644 38.2803 13.9644V13.9644H35.6544ZM37.3032 15.4315H38.8966C39.5518 15.4315 40.0468 15.5651 40.368 15.8278V15.8278C40.6856 16.0875 40.8395 16.4675 40.8395 16.9895V16.9895C40.8395 17.4855 40.6859 17.8575 40.3694 18.1264V18.1264C40.0513 18.3971 39.5875 18.5343 38.9914 18.5343V18.5343H37.3032V15.4315ZM37.3032 20.029H39.3102C40.0524 20.029 40.6171 20.1716 40.9887 20.452V20.452C41.3531 20.7284 41.5307 21.1263 41.5307 21.6687V21.6687C41.5307 22.2203 41.3484 22.6233 40.973 22.9014V22.9014C40.5904 23.1852 40.0123 23.3285 39.2557 23.3285V23.3285H37.3032V20.029Z" fill="white"/>
</mask>
<g mask="url(#mask0)">
<path fill-rule="evenodd" clip-rule="evenodd" d="M32.0972 28.3664H46.7772V10.4482H32.0972V28.3664Z" fill="#3156A4"/>
</g>
<mask id="mask1" mask-type="alpha" maskUnits="userSpaceOnUse" x="43" y="15" width="13" height="13">
<path fill-rule="evenodd" clip-rule="evenodd" d="M52.7311 15.5103V17.2869H51.4779H50.3246H49.7613L47.823 21.9828C47.7895 22.0633 47.7292 22.2333 47.6396 22.5036V22.5036C47.5861 22.6639 47.5258 22.8471 47.4582 23.0518V23.0518C47.3954 22.8329 47.3395 22.6437 47.2905 22.4825V22.4825C47.1812 22.1266 47.1392 22.0236 47.1204 21.9835V21.9835L45.2091 17.2869H43.4691L46.5679 24.713L45.2293 27.8745H46.8321L50.8815 18.6458H52.7311V23.2009C52.7311 23.8474 52.8848 24.32 53.1869 24.6057V24.6057C53.4872 24.8895 53.9862 25.0333 54.6696 25.0333V25.0333H55.531V23.5321H54.7172C54.5645 23.5321 54.4568 23.4975 54.396 23.4296V23.4296C54.3311 23.3558 54.298 23.2267 54.298 23.0451V23.0451V18.6458H55.531V17.2869H54.298V15.5103H52.7311Z" fill="white"/>
</mask>
<g mask="url(#mask1)">
<path fill-rule="evenodd" clip-rule="evenodd" d="M39.9119 31.3903H59.0882V11.9941H39.9119V31.3903Z" fill="#3156A4"/>
</g>
<mask id="mask2" mask-type="alpha" maskUnits="userSpaceOnUse" x="56" y="17" width="9" height="9">
<path fill-rule="evenodd" clip-rule="evenodd" d="M57.3426 18.2173C56.6295 18.9542 56.2677 19.9309 56.2677 21.1195V21.1195C56.2677 21.6227 56.3552 22.1099 56.5269 22.5681V22.5681C56.6994 23.0277 56.9504 23.4386 57.2732 23.7892V23.7892C57.641 24.1862 58.0877 24.4965 58.601 24.711V24.711C59.1125 24.9252 59.6703 25.0337 60.2589 25.0337V25.0337C60.9714 25.0337 61.621 24.8992 62.1897 24.6342V24.6342C62.7577 24.3699 63.2872 23.9541 63.7634 23.3992V23.3992L63.8558 23.2921L62.7145 22.375L62.6286 22.474C62.3037 22.8468 61.942 23.1325 61.5537 23.3229V23.3229C61.168 23.5114 60.746 23.6072 60.2995 23.6072V23.6072C59.6046 23.6072 59.0231 23.4085 58.5701 23.0161V23.0161C58.1492 22.653 57.9122 22.198 57.8477 21.629V21.629H64.1007V21.3973C64.1007 20.1201 63.7345 19.075 63.0115 18.2906V18.2906C62.2856 17.5033 61.3231 17.104 60.1506 17.104V17.104C59.0015 17.104 58.0565 17.479 57.3426 18.2173V18.2173ZM58.5761 19.071C59.0069 18.7033 59.5321 18.5173 60.1372 18.5173V18.5173C60.7323 18.5173 61.2445 18.6996 61.66 19.0599V19.0599C62.0367 19.3873 62.2769 19.8124 62.3745 20.3246V20.3246H57.8508C57.9423 19.8254 58.186 19.4038 58.5761 19.071V19.071Z" fill="white"/>
</mask>
<g mask="url(#mask2)">
<path fill-rule="evenodd" clip-rule="evenodd" d="M52.7104 28.5497H67.6582V13.5879H52.7104V28.5497Z" fill="#3156A4"/>
</g>
<mask id="mask3" mask-type="alpha" maskUnits="userSpaceOnUse" x="65" y="13" width="10" height="12">
<path fill-rule="evenodd" clip-rule="evenodd" d="M65.8304 13.9644V24.8506H68.1619C70.1738 24.8506 71.7301 24.3838 72.7872 23.4637V23.4637C73.8497 22.5392 74.3893 21.1757 74.3893 19.4108V19.4108C74.3893 17.642 73.8497 16.2758 72.7872 15.351V15.351C71.7301 14.4309 70.1738 13.9644 68.1619 13.9644V13.9644H65.8304ZM67.4926 15.4931H68.3719C69.8118 15.4931 70.9079 15.8242 71.6305 16.4779V16.4779C72.349 17.1283 72.7131 18.1148 72.7131 19.4108V19.4108C72.7131 20.7021 72.349 21.6883 71.6302 22.3409V22.3409C70.9079 22.9962 69.8118 23.3289 68.3719 23.3289V23.3289H67.4926V15.4931Z" fill="white"/>
</mask>
<g mask="url(#mask3)">
<path fill-rule="evenodd" clip-rule="evenodd" d="M62.2732 28.3664H77.9465V10.4482H62.2732V28.3664Z" fill="#3156A4"/>
</g>
<mask id="mask4" mask-type="alpha" maskUnits="userSpaceOnUse" x="75" y="17" width="8" height="8">
<path fill-rule="evenodd" clip-rule="evenodd" d="M76.1265 18.223C75.4286 18.9379 75.0748 19.8875 75.0748 21.0448V21.0448C75.0748 21.5789 75.1644 22.0813 75.3416 22.5384V22.5384C75.5189 22.9964 75.7859 23.4133 76.1362 23.7783V23.7783C76.504 24.1558 76.9305 24.448 77.4039 24.6462V24.6462C77.8774 24.8445 78.3817 24.9451 78.9035 24.9451V24.9451C79.4905 24.9451 80.0204 24.832 80.4774 24.6091V24.6091C80.8237 24.4403 81.1334 24.2052 81.4017 23.9081V23.9081V24.8503H82.9623V17.2867H81.497V18.2427C81.207 17.9325 80.8734 17.6837 80.5016 17.5007V17.5007C80.0185 17.2644 79.4808 17.1445 78.9035 17.1445V17.1445C77.7596 17.1445 76.8254 17.5072 76.1265 18.223V18.223ZM77.3624 22.8652C76.9157 22.4039 76.6896 21.7957 76.6896 21.0583V21.0583C76.6896 20.3253 76.916 19.7183 77.3629 19.255V19.255C77.8077 18.7919 78.385 18.5575 79.0792 18.5575V18.5575C79.7736 18.5575 80.3512 18.7931 80.796 19.2577V19.2577C81.2434 19.7241 81.4698 20.33 81.4698 21.0583V21.0583C81.4698 21.7913 81.2434 22.3982 80.7962 22.8619V22.8619C80.3519 23.325 79.7739 23.5592 79.0792 23.5592V23.5592C78.385 23.5592 77.8074 23.3255 77.3624 22.8652V22.8652Z" fill="white"/>
</mask>
<g mask="url(#mask4)">
<path fill-rule="evenodd" clip-rule="evenodd" d="M71.5176 28.4614H86.5195V13.6289H71.5176V28.4614Z" fill="#3156A4"/>
</g>
<mask id="mask5" mask-type="alpha" maskUnits="userSpaceOnUse" x="84" y="17" width="7" height="8">
<path fill-rule="evenodd" clip-rule="evenodd" d="M86.5622 17.3975C86.28 17.5253 86.0048 17.7064 85.7423 17.9385V17.9385V17.2869H84.1956V24.8505H85.7423V20.6715C85.7423 19.954 85.8945 19.4126 86.1941 19.0622V19.0622C86.4881 18.7183 86.9397 18.544 87.5367 18.544V18.544C88.0601 18.544 88.4303 18.7 88.6698 19.0212V19.0212C88.9152 19.35 89.0389 19.8873 89.0389 20.6177V20.6177V24.8505H90.5996V20.4888C90.5996 19.4611 90.3451 18.6397 89.8424 18.0475V18.0475C89.334 17.4483 88.6332 17.1445 87.7598 17.1445V17.1445C87.3347 17.1445 86.9319 17.2299 86.5622 17.3975V17.3975Z" fill="white"/>
</mask>
<g mask="url(#mask5)">
<path fill-rule="evenodd" clip-rule="evenodd" d="M80.6383 28.3665H94.1568V13.6284H80.6383V28.3665Z" fill="#3156A4"/>
</g>
<mask id="mask6" mask-type="alpha" maskUnits="userSpaceOnUse" x="91" y="17" width="7" height="9">
<path fill-rule="evenodd" clip-rule="evenodd" d="M93.6412 17.3818C93.1727 17.5666 92.7577 17.8433 92.4086 18.2027V18.2027C92.0401 18.5763 91.7576 19.0117 91.5692 19.4968V19.4968C91.3809 19.9803 91.2849 20.5104 91.2849 21.072V21.072C91.2849 21.6339 91.3809 22.163 91.5692 22.6442V22.6442C91.7579 23.1274 92.0403 23.5622 92.4077 23.9339V23.9339C92.7542 24.2899 93.1687 24.5654 93.641 24.753V24.753C94.1109 24.9392 94.6294 25.0338 95.1818 25.0338V25.0338C95.7195 25.0338 96.2113 24.9494 96.6434 24.7836V24.7836C97.076 24.6175 97.4926 24.352 97.8825 23.994V23.994L97.9808 23.9036L96.9512 22.7223L96.8491 22.8529C96.6547 23.1012 96.4177 23.2909 96.1446 23.4159V23.4159C95.8676 23.5428 95.5436 23.607 95.1818 23.607V23.607C94.5071 23.607 93.9746 23.3779 93.553 22.9062V22.9062C93.1336 22.4376 92.9205 21.8206 92.9205 21.072V21.072C92.9205 20.3237 93.1352 19.703 93.5596 19.2274V19.2274C93.9859 18.7495 94.5168 18.5171 95.1818 18.5171V18.5171C95.5229 18.5171 95.8298 18.5737 96.0935 18.6857V18.6857C96.356 18.7975 96.5932 18.9737 96.7996 19.2095V19.2095L96.9026 19.328L97.9128 18.1584L97.8143 18.0687C97.46 17.747 97.0612 17.5026 96.6277 17.3429V17.3429C96.1974 17.1845 95.7111 17.1045 95.1818 17.1045V17.1045C94.6251 17.1045 94.1069 17.1977 93.6412 17.3818V17.3818Z" fill="white"/>
</mask>
<g mask="url(#mask6)">
<path fill-rule="evenodd" clip-rule="evenodd" d="M87.7279 28.55H101.538V13.5884H87.7279V28.55Z" fill="#3156A4"/>
</g>
<mask id="mask7" mask-type="alpha" maskUnits="userSpaceOnUse" x="98" y="17" width="9" height="9">
<path fill-rule="evenodd" clip-rule="evenodd" d="M99.6874 18.2173C98.9744 18.9542 98.6122 19.9309 98.6122 21.1195V21.1195C98.6122 21.6227 98.6999 22.1099 98.8721 22.5681V22.5681C99.0441 23.0277 99.2953 23.4386 99.6181 23.7892V23.7892C99.986 24.1864 100.433 24.4967 100.946 24.711V24.711C101.457 24.9252 102.015 25.0337 102.604 25.0337V25.0337C103.316 25.0337 103.966 24.8992 104.535 24.6342V24.6342C105.102 24.3699 105.632 23.9541 106.109 23.3992V23.3992L106.2 23.2921L105.059 22.375L104.973 22.474C104.648 22.8471 104.287 23.1325 103.898 23.3229V23.3229C103.513 23.5114 103.091 23.6072 102.644 23.6072V23.6072C101.949 23.6072 101.368 23.4085 100.915 23.0161V23.0161C100.494 22.6528 100.257 22.198 100.192 21.629V21.629H106.446V21.3973C106.446 20.1201 106.079 19.075 105.356 18.2906V18.2906C104.63 17.5033 103.668 17.104 102.496 17.104V17.104C101.346 17.104 100.401 17.479 99.6874 18.2173V18.2173ZM100.921 19.071C101.352 18.7033 101.877 18.5173 102.482 18.5173V18.5173C103.077 18.5173 103.589 18.6996 104.004 19.0599V19.0599C104.382 19.3876 104.622 19.8128 104.719 20.3246V20.3246H100.195C100.287 19.8254 100.531 19.4038 100.921 19.071V19.071Z" fill="white"/>
</mask>
<g mask="url(#mask7)">
<path fill-rule="evenodd" clip-rule="evenodd" d="M95.0549 28.5497H110.003V13.5879H95.0549V28.5497Z" fill="#3156A4"/>
</g>
<path fill-rule="evenodd" clip-rule="evenodd" d="M14 25.4397L16.7847 24.7237V13.459L14 12.7432V25.4397Z" fill="#3156A4"/>
<path fill-rule="evenodd" clip-rule="evenodd" d="M27.4477 26.183L30.2329 25.4671V12.7158L27.4477 12V26.183Z" fill="#81CAC7"/>
<path fill-rule="evenodd" clip-rule="evenodd" d="M18.4152 25.8248L21.1999 25.1092V19.064L18.4152 18.3481V25.8248Z" fill="#487FC0"/>
<path fill-rule="evenodd" clip-rule="evenodd" d="M23.0205 17.241V23.2862L25.8057 24.002V16.5254L23.0205 17.241Z" fill="#2CB7C1"/>
</svg>
