<svg width="120" height="40" viewBox="0 0 120 40" fill="none" xmlns="http://www.w3.org/2000/svg">
<path d="M34.4059 10.6665C33.6192 10.6665 32.9072 10.9921 32.389 11.5184L32.3875 11.5199C32.0628 11.8501 31.8149 12.2597 31.6731 12.7177C31.6716 12.7218 31.6697 12.726 31.6684 12.7304C31.6431 12.8133 31.6225 12.8983 31.6044 12.9842C31.6023 12.9943 31.599 13.0038 31.5967 13.0141C31.5805 13.0965 31.5688 13.1808 31.5591 13.2656C31.5576 13.2797 31.5544 13.2935 31.5529 13.308C31.5429 13.4072 31.5378 13.508 31.5378 13.6101V17.3121V22.5877C31.5378 24.2133 32.8219 25.5311 34.4059 25.5311H37.9816H40.2662C40.7187 25.5311 41.1649 25.6411 41.5681 25.8519L44.979 27.6352C44.9808 27.6363 44.9829 27.6369 44.9847 27.6378C45.0171 27.6544 45.0497 27.6677 45.0826 27.6789C45.0944 27.6829 45.1062 27.6857 45.1181 27.6889C45.1421 27.6956 45.166 27.7013 45.19 27.7055C45.2024 27.7076 45.2148 27.7094 45.2272 27.7108C45.2526 27.7136 45.2779 27.715 45.3028 27.715C45.3127 27.715 45.3226 27.7156 45.3324 27.7151C45.3673 27.7136 45.402 27.7099 45.4359 27.7033C45.4389 27.7027 45.4416 27.7018 45.4446 27.701C45.4758 27.6947 45.5065 27.6858 45.5365 27.6749C45.5446 27.6722 45.5527 27.6688 45.5607 27.6656C45.5858 27.6554 45.6107 27.6441 45.6346 27.631C45.6419 27.6272 45.6492 27.6235 45.6563 27.6195C45.6842 27.6031 45.7111 27.5853 45.7367 27.5655L45.7422 27.5615C45.7712 27.5385 45.7987 27.5134 45.8242 27.486C45.9445 27.357 46.0214 27.1816 46.0214 26.9797V13.6099C46.0214 11.9844 44.7373 10.6665 43.1534 10.6665H34.4059Z" fill="#656F94"/>
<path fill-rule="evenodd" clip-rule="evenodd" d="M30.5 17.3125V18.2937V23.5693C30.5 25.1949 31.784 26.5127 33.368 26.5127H36.9437H37.9389C37.7424 27.4989 36.8921 28.2409 35.8731 28.2409H31.5646C31.232 28.2409 30.9038 28.3218 30.6075 28.4767L28.0997 29.788L28.0954 29.7899C28.0716 29.802 28.0476 29.8118 28.0235 29.8199C28.0158 29.8227 28.0081 29.8247 28.0002 29.8267L28.0002 29.8267L27.9973 29.8275C27.9798 29.8324 27.9625 29.8365 27.9447 29.8394C27.9354 29.8411 27.9263 29.8425 27.917 29.8434C27.8985 29.8456 27.8801 29.8465 27.8616 29.8465C27.8589 29.8465 27.8562 29.8465 27.8535 29.8466C27.849 29.8467 27.8445 29.8468 27.8399 29.8466C27.8142 29.8456 27.7888 29.843 27.7638 29.8379C27.7617 29.8377 27.7575 29.8364 27.7575 29.8364C27.7345 29.8314 27.7121 29.8252 27.6898 29.8172C27.6838 29.815 27.6781 29.8127 27.6722 29.8103C27.6536 29.8028 27.6354 29.7945 27.6177 29.785C27.6159 29.7839 27.614 29.7829 27.6121 29.7819C27.6087 29.7801 27.6052 29.7783 27.6019 29.7762C27.5814 29.7644 27.5614 29.7512 27.5427 29.7368L27.5385 29.7337C27.5171 29.7168 27.4971 29.6984 27.4784 29.6783C27.3899 29.5835 27.3334 29.4543 27.3334 29.3059V19.4766C27.3334 18.2813 28.2773 17.3125 29.442 17.3125H30.5Z" fill="#656F94"/>
<path fill-rule="evenodd" clip-rule="evenodd" d="M62.3696 27.7155C61.6224 27.7155 61.0166 27.0938 61.0166 26.3267V14.6391C61.0166 13.8721 61.6224 13.2505 62.3696 13.2505C63.1168 13.2505 63.7226 13.8721 63.7226 14.6391V26.3267C63.7226 27.0938 63.1168 27.7155 62.3696 27.7155Z" fill="#656F94"/>
<path fill-rule="evenodd" clip-rule="evenodd" d="M54.2514 27.7155C53.5042 27.7155 52.8984 27.0938 52.8984 26.3267V14.6391C52.8984 13.8721 53.5042 13.2505 54.2514 13.2505C54.9987 13.2505 55.6045 13.8721 55.6045 14.6391V26.3267C55.6045 27.0938 54.9987 27.7155 54.2514 27.7155Z" fill="#656F94"/>
<path fill-rule="evenodd" clip-rule="evenodd" d="M78.5818 27.7155C77.8344 27.7155 77.2286 27.0938 77.2286 26.3267V14.6391C77.2286 13.8721 77.8344 13.2505 78.5818 13.2505C79.329 13.2505 79.9348 13.8721 79.9348 14.6391V26.3267C79.9348 27.0938 79.329 27.7155 78.5818 27.7155Z" fill="#656F94"/>
<path fill-rule="evenodd" clip-rule="evenodd" d="M62.3697 21.8716H54.2515C53.5042 21.8716 52.8984 21.2499 52.8984 20.483C52.8984 19.716 53.5042 19.0942 54.2515 19.0942H62.3697C63.1169 19.0942 63.7227 19.716 63.7227 20.483C63.7227 21.2499 63.1169 21.8716 62.3697 21.8716Z" fill="#656F94"/>
<path fill-rule="evenodd" clip-rule="evenodd" d="M86.9523 18.921C85.3357 18.921 84.0207 20.2706 84.0207 21.9296C84.0207 23.5888 85.3357 24.9384 86.9523 24.9384C88.5688 24.9384 89.8838 23.5888 89.8838 21.9296C89.8838 20.2706 88.5688 18.921 86.9523 18.921ZM86.9523 27.7156C83.8437 27.7156 81.3147 25.1201 81.3147 21.9296C81.3147 18.7391 83.8437 16.1436 86.9523 16.1436C90.0608 16.1436 92.5899 18.7391 92.5899 21.9296C92.5899 25.1201 90.0608 27.7156 86.9523 27.7156Z" fill="#656F94"/>
<path fill-rule="evenodd" clip-rule="evenodd" d="M70.7133 27.7156C67.6047 27.7156 65.0758 25.1201 65.0758 21.9296C65.0758 18.7391 67.4561 16.1436 70.5647 16.1436C73.4984 16.1436 75.6045 18.0904 75.8713 21.0858C75.9392 21.8497 75.3911 22.5252 74.6471 22.5951C73.9048 22.6672 73.2444 22.1025 73.1764 21.3385C73.0378 19.7824 71.9382 18.921 70.4125 18.921C68.7962 18.921 67.7818 20.2706 67.7818 21.9296C67.7818 23.5887 69.0969 24.9382 70.7133 24.9382C71.4535 24.9382 72.6195 24.3688 73.1625 23.8533C73.711 23.3326 74.5668 23.3667 75.0745 23.9297C75.5819 24.4928 75.4921 25.3149 74.9999 25.892C74.0242 27.0365 72.1367 27.7156 70.7133 27.7156Z" fill="#656F94"/>
<path fill-rule="evenodd" clip-rule="evenodd" d="M74.4471 22.6016H67.2192C66.6628 22.6016 66.2118 22.1387 66.2118 21.5677C66.2118 20.9966 66.6628 20.5337 67.2192 20.5337H74.4471C75.0035 20.5337 75.4545 20.9966 75.4545 21.5677C75.4545 22.1387 75.0035 22.6016 74.4471 22.6016Z" fill="#656F94"/>
</svg>
