<svg width="120" height="40" viewBox="0 0 120 40" fill="none" xmlns="http://www.w3.org/2000/svg">
<path d="M57.0834 18.3981V20.2096H59.5743V21.5428H57.0834V24.5822H55.5653V17.0522H60.2185V18.3981H57.0834Z" fill="#656F94"/>
<path d="M60.2408 22.0247C60.2408 20.4077 61.5293 19.3584 62.9836 19.3584C64.438 19.3584 65.7264 20.4077 65.7264 22.0247C65.7264 23.6321 64.438 24.6813 62.9836 24.6813C61.5293 24.6813 60.2408 23.6321 60.2408 22.0247ZM64.2721 22.0247C64.2721 21.2273 63.6917 20.6915 62.9836 20.6915C62.2724 20.6915 61.6952 21.2273 61.6952 22.0247C61.6952 22.8124 62.2756 23.3482 62.9836 23.3482C63.6949 23.3482 64.2721 22.8124 64.2721 22.0247Z" fill="#656F94"/>
<path d="M70.306 19.5243L69.978 20.8893C69.6713 20.7266 69.42 20.7043 69.244 20.7043C68.5107 20.7043 68.01 21.3804 68.01 22.8347V24.5825H66.578V19.4891H67.9973V20.5703C68.2813 19.7188 68.8613 19.3584 69.4933 19.3584C69.7707 19.3584 70.0767 19.4031 70.306 19.5243Z" fill="#656F94"/>
<path d="M78.232 22.4294C78.232 23.4692 77.5207 24.5822 75.862 24.5822H72.6507V17.0522H75.6327C76.9754 17.0522 77.8394 17.8623 77.8394 18.9977C77.8394 19.5558 77.6194 20.3085 76.8 20.5605C77.7627 20.7232 78.232 21.5779 78.232 22.4294ZM74.1687 18.3981V20.047H75.546C76.028 20.047 76.3214 19.7313 76.3214 19.2178C76.3214 18.7585 76.082 18.3981 75.546 18.3981H74.1687ZM76.704 22.2764C76.704 21.8075 76.388 21.3164 75.664 21.3164H74.1687V23.2395H75.6454C76.3534 23.2363 76.704 22.7802 76.704 22.2764Z" fill="#656F94"/>
<path d="M84.036 19.4893V24.5826H82.604V23.7534C82.384 24.4199 81.5774 24.7038 81.0734 24.7038C79.74 24.7038 79.042 23.8171 79.0514 22.2895V19.4925H80.4834V22.1364C80.4834 22.9337 80.9647 23.2941 81.456 23.2941C81.9694 23.2941 82.604 23.0198 82.604 22.1013V19.4893H84.036Z" fill="#656F94"/>
<path d="M84.8881 22.9429H86.2307C86.2307 23.2395 86.4827 23.5553 86.9834 23.5553C87.3981 23.5553 87.7167 23.3799 87.7167 23.0865C87.7167 22.8696 87.5414 22.7579 87.1587 22.6591L86.4827 22.4964C85.1721 22.1456 84.9961 21.4153 84.9961 20.8795C84.9961 20.0917 85.8161 19.3613 86.9961 19.3613C87.9241 19.3613 89.0181 19.8206 89.0054 21.0229H87.6401C87.6401 20.6849 87.3567 20.4999 87.0181 20.4999C86.6901 20.4999 86.4281 20.6626 86.4281 20.9273C86.4281 21.1665 86.6487 21.2877 86.9321 21.3642L87.7741 21.5843C88.9987 21.9128 89.1521 22.6782 89.1521 23.0928C89.1521 24.1645 88.0581 24.6875 87.0087 24.6875C85.9374 24.6811 84.8974 24.0687 84.8881 22.9429Z" fill="#656F94"/>
<path d="M89.8154 17.7187C89.8154 17.2371 90.23 16.8672 90.7214 16.8672C91.2247 16.8672 91.6267 17.2371 91.6267 17.7187C91.6267 18.2003 91.222 18.583 90.7214 18.583C90.23 18.583 89.8154 18.2003 89.8154 17.7187ZM90.0134 19.4888H91.4454V24.5821H90.0134V19.4888Z" fill="#656F94"/>
<path d="M97.5973 21.7855V24.5825H96.1653V21.9385C96.1653 21.1285 95.6833 20.7681 95.1927 20.7681C94.6793 20.7681 94.0447 21.0423 94.0447 21.9705V24.5825H92.6127V19.4891H94.0447V20.3407C94.2613 19.6518 95.0713 19.3584 95.5753 19.3584C96.9087 19.3584 97.6067 20.2546 97.5973 21.7855Z" fill="#656F94"/>
<path d="M103.727 22.4933H99.8807C100.034 23.0833 100.515 23.4117 101.205 23.4117C101.718 23.4117 102.231 23.2045 102.537 22.8441L103.379 23.6861C102.898 24.3303 102.002 24.6811 101.105 24.6811C99.5427 24.6811 98.3947 23.6095 98.3947 22.0371C98.3947 20.3883 99.6413 19.3613 101.105 19.3613C102.56 19.3613 103.749 20.3883 103.749 21.9511C103.749 22.0914 103.737 22.2636 103.727 22.4933ZM102.317 21.5651C102.273 20.9655 101.772 20.6051 101.128 20.6051C100.547 20.6051 100.034 20.8795 99.8807 21.5651H102.317Z" fill="#656F94"/>
<path d="M104.26 22.9429H105.603C105.603 23.2395 105.855 23.5553 106.355 23.5553C106.77 23.5553 107.089 23.3799 107.089 23.0865C107.089 22.8696 106.913 22.7579 106.531 22.6591L105.855 22.4964C104.543 22.1456 104.368 21.4153 104.368 20.8795C104.368 20.0917 105.188 19.3613 106.368 19.3613C107.296 19.3613 108.39 19.8206 108.377 21.0229H107.012C107.012 20.6849 106.728 20.4999 106.39 20.4999C106.062 20.4999 105.8 20.6626 105.8 20.9273C105.8 21.1665 106.02 21.2877 106.304 21.3642L107.146 21.5843C108.371 21.9128 108.524 22.6782 108.524 23.0928C108.524 24.1645 107.43 24.6875 106.381 24.6875C105.309 24.6811 104.273 24.0687 104.26 22.9429Z" fill="#656F94"/>
<path d="M109.069 22.9429H110.412C110.412 23.2395 110.664 23.5553 111.165 23.5553C111.579 23.5553 111.898 23.3799 111.898 23.0865C111.898 22.8696 111.723 22.7579 111.34 22.6591L110.664 22.4964C109.353 22.1456 109.177 21.4153 109.177 20.8795C109.177 20.0917 109.997 19.3613 111.177 19.3613C112.105 19.3613 113.199 19.8206 113.187 21.0229H111.821C111.821 20.6849 111.538 20.4999 111.2 20.4999C110.871 20.4999 110.609 20.6626 110.609 20.9273C110.609 21.1665 110.83 21.2877 111.113 21.3642L111.955 21.5843C113.18 21.9128 113.333 22.6782 113.333 23.0928C113.333 24.1645 112.239 24.6875 111.19 24.6875C110.119 24.6811 109.082 24.0687 109.069 22.9429Z" fill="#656F94"/>
<path d="M53.2753 19.3869C53.2753 19.9387 52.8288 20.3852 52.2771 20.3852C51.7253 20.3852 51.2788 19.9387 51.2788 19.3869C51.2788 18.8352 51.7253 18.3887 52.2771 18.3887C52.8288 18.3887 53.2753 18.8352 53.2753 19.3869Z" fill="#656F94"/>
<path d="M53.2753 22.4518C53.2753 23.0036 52.8289 23.4501 52.2771 23.4501C51.7253 23.4501 51.2789 23.0036 51.2789 22.4518C51.2789 21.9001 51.7253 21.4536 52.2771 21.4536C52.8289 21.4536 53.2753 21.9001 53.2753 22.4518Z" fill="#656F94"/>
<path d="M6.66669 14.6953H6.94735H14.0532L13.3738 16.8098H11.457L11.4602 24.1803V24.6204H9.06822C9.06822 24.6204 9.06822 24.5502 9.06822 24.4674V16.8066H6.94735L6.66989 16.813L6.66669 14.6953Z" fill="#656F94"/>
<path d="M26.3575 14.6953H26.6381H33.9162L33.2369 16.8098H31.1511L31.1542 24.1803V24.6268H28.7623C28.7623 24.6268 28.7623 24.5534 28.7623 24.4705V16.8098H26.6381L26.3575 16.813V14.6953Z" fill="#656F94"/>
<path d="M14.506 18.0662V17.8525H16.8724L16.8756 18.0662L16.8788 23.9983L16.8693 24.6203H14.5188V24.2822L14.506 18.0662Z" fill="#656F94"/>
<path d="M18.0143 15.1353V14.6665H18.4863H19.9597H20.3553V15.0716L20.3584 19.291L22.7249 16.9883H25.5475L22.5814 19.8683L25.9047 24.6204H23.2958L21.0792 21.3258L20.3775 22.0051V24.6236L18.0239 24.6204V24.4098L18.0143 15.1353Z" fill="#656F94"/>
<path d="M42.3201 15.1353V14.6665H42.7921H44.2655H44.661V15.0716L44.6642 19.291L47.0307 16.9883H49.8533L46.8872 19.8683L50.2105 24.6204H47.6047L45.3882 21.3258L44.6833 22.0051L44.6865 24.6236L42.3297 24.6204V24.4098L42.3201 15.1353Z" fill="#656F94"/>
<path d="M40.9806 18.9719C40.7669 18.4807 40.4799 18.0533 40.1163 17.6897C39.7527 17.3261 39.3253 17.0423 38.831 16.835C38.7863 16.8159 38.7417 16.7967 38.6939 16.7808C38.6779 16.7744 38.6588 16.768 38.6428 16.7617C38.6141 16.7521 38.5854 16.7425 38.5567 16.7329C38.5344 16.7266 38.5121 16.717 38.4929 16.7106C38.4706 16.7043 38.4483 16.6979 38.4259 16.6915C38.4005 16.6851 38.3749 16.6755 38.3462 16.6691C38.3367 16.666 38.3271 16.6628 38.3175 16.6628C38.2027 16.6341 38.0879 16.6085 37.9699 16.5863C37.9667 16.5863 37.9635 16.5863 37.9571 16.5831C37.9157 16.5767 37.8742 16.5703 37.8327 16.5639C37.7435 16.5511 37.6541 16.5416 37.5617 16.5352C37.4947 16.5288 37.4245 16.5288 37.3575 16.5257C37.3225 16.5257 37.2874 16.5225 37.2523 16.5225C37.2204 16.5225 37.1885 16.5225 37.1566 16.5257C37.0833 16.5288 37.0067 16.5288 36.9333 16.5352C36.7739 16.548 36.6208 16.5671 36.4677 16.5958C36.4422 16.6022 36.4167 16.6054 36.3912 16.6117C36.3689 16.6181 36.3433 16.6213 36.321 16.6277C36.2668 16.6405 36.2157 16.6532 36.1615 16.666C35.8139 16.7617 35.4886 16.8924 35.1888 17.0678C34.889 17.2401 34.6147 17.4473 34.3723 17.6929C34.1267 17.9385 33.9195 18.2096 33.7441 18.5062C33.5686 18.8028 33.4347 19.1281 33.3358 19.4757C33.2401 19.8234 33.1923 20.187 33.1923 20.5665C33.1923 20.9429 33.2401 21.3064 33.339 21.6541C33.4347 22.0017 33.5718 22.3238 33.7472 22.6236C33.9227 22.9234 34.1331 23.1945 34.3755 23.4401C34.6211 23.6857 34.8922 23.8929 35.192 24.0684C35.4918 24.2438 35.8171 24.3777 36.1647 24.4702C36.2221 24.4862 36.2763 24.4989 36.3337 24.5117C36.3529 24.5149 36.3721 24.5213 36.3912 24.5245C36.4295 24.534 36.4677 24.5404 36.506 24.5468C36.5283 24.5499 36.5507 24.5563 36.5761 24.5595C36.6144 24.5659 36.6527 24.5723 36.6941 24.5755C36.7133 24.5787 36.7324 24.5819 36.7547 24.5851C36.8153 24.5914 36.8791 24.5978 36.9429 24.6042C37.0227 24.6105 37.1024 24.6137 37.1821 24.6137C37.2077 24.6137 37.2331 24.6137 37.2587 24.6137C37.2842 24.6137 37.3097 24.6137 37.332 24.6137C37.4117 24.6105 37.4915 24.6105 37.5712 24.6042C37.6446 24.5978 37.7211 24.5914 37.7945 24.5819C37.8423 24.5755 37.8869 24.5691 37.9348 24.5627C37.9603 24.5595 37.9858 24.5531 38.0113 24.5499C38.0433 24.5436 38.0783 24.5372 38.1102 24.5308C38.1293 24.5277 38.1517 24.5213 38.1708 24.5181C38.225 24.5053 38.2793 24.4925 38.3335 24.4766C38.6779 24.3809 39 24.247 39.2998 24.0747C39.5996 23.8993 39.8739 23.6921 40.1163 23.4465C40.3619 23.2009 40.5692 22.9298 40.7446 22.63C40.92 22.3302 41.0539 22.0081 41.1528 21.6605C41.2517 21.3128 41.2963 20.9524 41.2963 20.5729C41.2995 19.9924 41.1943 19.463 40.9806 18.9719ZM39.1467 21.0927C39.0989 21.2618 39.0351 21.4181 38.949 21.5647C38.8629 21.7115 38.7608 21.8422 38.6428 21.9603C38.5248 22.0783 38.3909 22.1803 38.2473 22.2664C38.1007 22.3525 37.9444 22.4163 37.7785 22.4609C37.635 22.4992 37.4851 22.5215 37.332 22.5279C37.3416 22.5279 37.3479 22.5279 37.3575 22.5279C37.3416 22.5279 37.3257 22.5311 37.3065 22.5311C37.2969 22.5311 37.2874 22.5311 37.281 22.5311C37.2746 22.5311 37.2651 22.5311 37.2587 22.5311C37.1471 22.5311 37.0418 22.5215 36.9365 22.5056C36.8664 22.4961 36.7994 22.4801 36.7324 22.4641C36.5634 22.4195 36.4071 22.3525 36.2604 22.2696C36.1137 22.1835 35.9829 22.0846 35.8617 21.9634C35.7437 21.8454 35.6417 21.7115 35.5556 21.5679C35.4695 21.4213 35.4057 21.2649 35.3578 21.0959C35.31 20.9269 35.2877 20.7515 35.2877 20.5665C35.2877 20.3815 35.31 20.2061 35.3578 20.0371C35.4057 19.8681 35.4695 19.7118 35.5556 19.5651C35.6417 19.4215 35.7437 19.2876 35.8617 19.1696C35.9797 19.0516 36.1137 18.9495 36.2572 18.8666C36.4039 18.7837 36.5602 18.7167 36.7293 18.6721C36.7994 18.6529 36.8696 18.6401 36.9397 18.6274C37.0418 18.6115 37.1471 18.6019 37.2555 18.6019C37.2651 18.6019 37.2746 18.6019 37.2842 18.6019C37.2905 18.6019 37.3001 18.6019 37.3065 18.6019C37.3257 18.6019 37.3448 18.6019 37.3639 18.6019C37.3575 18.6019 37.3511 18.6019 37.3448 18.6019C37.584 18.6115 37.8104 18.6625 38.0241 18.7518C38.2633 18.8539 38.4706 18.991 38.6492 19.1664C38.8246 19.3418 38.9649 19.5491 39.0702 19.7883C39.1723 20.0275 39.2233 20.2859 39.2265 20.5633C39.2169 20.7483 39.1946 20.9269 39.1467 21.0927Z" fill="#656F94"/>
<path d="M16.8821 15.8849C16.8821 16.5419 16.3494 17.0745 15.6924 17.0745C15.0354 17.0745 14.5028 16.5419 14.5028 15.8849C14.5028 15.2279 15.0354 14.6953 15.6924 14.6953C16.3494 14.6953 16.8821 15.2279 16.8821 15.8849Z" fill="#656F94"/>
</svg>
