<svg width="120" height="40" viewBox="0 0 120 40" fill="none" xmlns="http://www.w3.org/2000/svg">
<path fill-rule="evenodd" clip-rule="evenodd" d="M78.0588 14.1538C77.4569 14.1538 76.9263 14.6419 76.8736 15.2436C76.8209 15.8455 77.2661 16.3335 77.868 16.3335C78.4699 16.3335 79.0005 15.8455 79.0532 15.2436C79.1059 14.6419 78.6607 14.1538 78.0588 14.1538" fill="#656F94"/>
<path fill-rule="evenodd" clip-rule="evenodd" d="M73.625 15.9153C73.7993 15.6562 73.8288 15.3357 73.7021 15.0755C73.5759 14.8151 73.3125 14.6544 73.0122 14.6544H67.9725V14.6546V14.6544H67.9713L67.9655 14.6448L67.2667 13.665C66.106 14.4042 63.9461 15.234 61.8592 15.7476L62.2857 17.332C63.3689 17.0586 64.4552 16.7107 65.4374 16.33H71.066C70.2769 17.0175 69.0805 17.8409 67.4397 18.4086L65.8084 16.6417L64.5258 17.8327L65.5115 18.9006C64.8062 19.0211 64.0421 19.091 63.2165 19.091H61.5766L61.4301 20.7667H63.07C70.2799 20.7667 73.4919 16.1134 73.625 15.9153" fill="#656F94"/>
<path fill-rule="evenodd" clip-rule="evenodd" d="M74.2175 20.0651H71.9987L71.9991 20.0669L71.9977 20.0651L71.2104 18.9604C68.3001 21.1376 63.868 21.9407 61.8803 22.2031L62.3152 23.819C64.0412 23.5737 66.9806 23.002 69.6548 21.7407H72.8868C72.3308 22.6178 71.1428 24.1217 69.0693 25.1687L67.1842 23.1267L65.9016 24.3177L67.3225 25.8568C66.3218 26.1509 65.1749 26.3325 63.8624 26.3325L60.9387 26.3447L60.799 28.0203L63.7193 28.0081C71.5435 28.0081 74.4608 22.3326 74.7679 21.6852C74.8864 21.435 74.9585 21.1719 74.982 20.9029C75.0227 20.4403 74.6803 20.0651 74.2175 20.0651" fill="#656F94"/>
<path fill-rule="evenodd" clip-rule="evenodd" d="M87.2144 24.079L83.9533 20.5465C83.9718 20.4988 83.99 20.4507 84.0081 20.402C84.0536 20.2781 84.0989 20.1085 84.1546 19.8528C84.273 19.3096 84.3394 18.6458 84.3929 18.1122L84.4797 17.1958H82.8041L82.7191 18.0909C82.6702 18.5808 82.609 19.1901 82.512 19.6357C82.4595 19.8764 82.4346 19.9478 82.434 19.9496C82.1156 20.8159 81.8077 21.4511 79.5975 23.4901L78.9338 24.0609L79.9673 25.2882L80.6438 24.7065L80.6684 24.6845C81.8546 23.5909 82.5796 22.8276 83.0686 22.1686L85.9319 25.27L87.2144 24.079Z" fill="#656F94"/>
<mask id="mask0" mask-type="alpha" maskUnits="userSpaceOnUse" x="80" y="14" width="11" height="15">
<path fill-rule="evenodd" clip-rule="evenodd" d="M80.6215 14.4067H90.5025V28.0195H80.6215V14.4067Z" fill="white"/>
</mask>
<g mask="url(#mask0)">
<path fill-rule="evenodd" clip-rule="evenodd" d="M88.0472 14.4067H80.7682L80.6215 16.0824H87.9007C88.4499 16.0824 88.8612 16.4887 88.8175 16.9879L88.0779 25.4383C88.0344 25.9376 87.5519 26.3439 87.0029 26.3439H85.4916L85.3451 28.0195H86.8564C88.3294 28.0195 89.6292 26.8616 89.7537 25.4383L90.4929 16.9879C90.6174 15.5647 89.5204 14.4067 88.0472 14.4067" fill="#656F94"/>
</g>
<path fill-rule="evenodd" clip-rule="evenodd" d="M76.0122 28.0205H77.6878L78.5672 17.9751H76.8915L76.0122 28.0205Z" fill="#656F94"/>
<path fill-rule="evenodd" clip-rule="evenodd" d="M37.2793 8.65869H50.4411C53.5228 8.65869 56.0441 11.18 56.0441 14.2617V27.4235C56.0441 30.5052 53.5228 33.0267 50.4411 33.0267H37.2793C34.1976 33.0267 31.6761 30.5052 31.6761 27.4235V14.2617C31.6761 11.18 34.1976 8.65869 37.2793 8.65869" fill="#656F94"/>
<mask id="mask1" mask-type="alpha" maskUnits="userSpaceOnUse" x="50" y="11" width="3" height="4">
<path fill-rule="evenodd" clip-rule="evenodd" d="M50.3025 13.188C50.3025 13.8546 50.8429 14.395 51.5097 14.395C52.1764 14.395 52.7167 13.8546 52.7167 13.188C52.7167 12.5213 52.1764 11.981 51.5097 11.981C50.8429 11.981 50.3025 12.5213 50.3025 13.188Z" fill="white"/>
</mask>
<g mask="url(#mask1)">
<path fill-rule="evenodd" clip-rule="evenodd" d="M50.3025 13.188C50.3025 13.8546 50.8429 14.395 51.5097 14.395V14.395C52.1764 14.395 52.7167 13.8546 52.7167 13.188V13.188C52.7167 12.5213 52.1764 11.981 51.5097 11.981V11.981C50.8429 11.981 50.3025 12.5213 50.3025 13.188" fill="white"/>
</g>
<mask id="mask2" mask-type="alpha" maskUnits="userSpaceOnUse" x="36" y="13" width="16" height="16">
<path fill-rule="evenodd" clip-rule="evenodd" d="M36.7017 20.8424C36.7017 22.8067 37.4977 24.5886 38.7832 25.8834L37.9276 26.7381C39.2667 27.4839 41.8984 28.0008 43.8601 28.0008C47.8073 28.0008 51.0184 24.7896 51.0184 20.8424C51.0184 16.8955 47.8073 13.6841 43.8601 13.6841C39.9129 13.6841 36.7017 16.8955 36.7017 20.8424ZM40.6323 24.0374C39.8191 23.2158 39.3158 22.087 39.3158 20.8425C39.3158 18.3368 41.3544 16.2984 43.8601 16.2984C46.3657 16.2984 48.4044 18.3368 48.4044 20.8425C48.4044 23.3481 46.3657 25.3867 43.8601 25.3867C42.6194 25.3867 41.5458 25.2607 39.8632 24.8067L40.6323 24.0374Z" fill="white"/>
</mask>
<g mask="url(#mask2)">
<path fill-rule="evenodd" clip-rule="evenodd" d="M36.7017 20.8424C36.7017 22.8067 37.4977 24.5886 38.7832 25.8834V25.8834L37.9276 26.7381C39.2667 27.4839 41.8984 28.0008 43.8601 28.0008V28.0008C47.8073 28.0008 51.0184 24.7896 51.0184 20.8424V20.8424C51.0184 16.8955 47.8073 13.6841 43.8601 13.6841V13.6841C39.9129 13.6841 36.7017 16.8955 36.7017 20.8424V20.8424ZM40.6323 24.0374C39.8191 23.2158 39.3158 22.087 39.3158 20.8425V20.8425C39.3158 18.3368 41.3544 16.2984 43.8601 16.2984V16.2984C46.3657 16.2984 48.4044 18.3368 48.4044 20.8425V20.8425C48.4044 23.3481 46.3657 25.3867 43.8601 25.3867V25.3867C42.6194 25.3867 41.5458 25.2607 39.8632 24.8067V24.8067L40.6323 24.0374Z" fill="white"/>
</g>
</svg>
