<svg width="120" height="40" viewBox="0 0 120 40" fill="none" xmlns="http://www.w3.org/2000/svg">
<path d="M28.5144 31.7595C28.4546 31.7757 28.3772 31.7944 28.2865 31.81C28.2453 31.8172 28.1931 31.8253 28.1326 31.8318C28.0438 31.8415 27.9614 31.8456 27.8867 31.8464M28.5144 31.7595L26.9126 31.6604L26.9138 31.6609C26.9142 31.6611 26.9146 31.6612 26.915 31.6614C26.9269 31.6663 26.966 31.6823 27.0137 31.6994L27.0154 31.7C27.1075 31.733 27.1984 31.7595 27.2875 31.7805C27.3011 31.7838 27.3161 31.7873 27.3321 31.7908C27.3456 31.7938 27.3714 31.7995 27.4067 31.8058C27.5419 31.8308 27.6614 31.8409 27.7562 31.8449L27.8399 29.8468L27.7564 31.8449C27.8168 31.8474 27.8663 31.8468 27.8867 31.8464M28.5144 31.7595C28.5244 31.7569 28.5399 31.7527 28.5564 31.748C28.5843 31.7401 28.6249 31.7281 28.6732 31.7115C28.7491 31.6855 28.831 31.6535 28.9169 31.6139L28.9554 31.5975L29.0265 31.5604L31.5342 30.2491L31.5344 30.249C31.5463 30.2428 31.5566 30.2409 31.5646 30.2409H35.8731C38.1907 30.2409 39.9817 28.3273 39.9817 26.0769V25.5315V19.4766C39.9817 19.3325 39.9742 19.193 39.961 19.0589L39.9594 19.0427L39.9576 19.0267C39.9543 18.9979 39.9509 18.9733 39.9482 18.9552C39.9383 18.8734 39.9233 18.765 39.8993 18.6457C39.8924 18.611 39.8855 18.5811 39.8798 18.5579C39.8602 18.4696 39.8346 18.365 39.8005 18.252L39.7868 18.2067L39.7786 18.1836C39.577 17.5579 39.2334 16.9956 38.7833 16.5377L38.7323 16.4858L38.7219 16.4767C37.9911 15.7636 36.9867 15.3125 35.8731 15.3125H31.5379H29.442C27.1241 15.3125 25.3334 17.226 25.3334 19.4766V29.3059C25.3334 29.9789 25.5945 30.5904 26.015 31.0415C26.1043 31.1375 26.1995 31.2248 26.2992 31.3035L26.3271 31.3255L26.348 31.3408C26.4313 31.4033 26.5128 31.4562 26.5893 31.5009C26.6272 31.5232 26.6562 31.5388 26.6663 31.5442L26.6665 31.5443L26.6685 31.5453L28.5144 31.7595ZM27.8867 31.8464C27.8782 31.8464 27.8698 31.8465 27.8616 31.8465C27.8803 31.8465 27.8945 31.8462 27.8989 31.8461L27.8933 31.8462L27.8926 31.8462C27.891 31.8463 27.889 31.8463 27.8867 31.8464ZM39.953 18.9955L39.9529 18.995L39.953 18.9955Z" fill="#656F94" stroke="white" stroke-width="4"/>
<path d="M46.0345 27.9673C45.9921 27.9994 45.95 28.0269 45.9095 28.0507L45.9032 28.0544L45.9031 28.0543C45.8925 28.0604 45.8833 28.0653 45.8775 28.0683L45.8702 28.0721L45.8691 28.0727C45.8266 28.0956 45.7854 28.1141 45.7477 28.1293L45.7461 28.1299L45.7414 28.1318L45.732 28.1356C45.7246 28.1385 45.7126 28.1431 45.6984 28.148L45.5365 27.6749M46.0345 27.9673L45.3006 28.215M46.0345 27.9673C46.0353 27.9666 46.0363 27.966 46.0373 27.9652L46.044 27.9604L46.053 27.9532C46.1003 27.9157 46.1463 27.8738 46.1898 27.8271M46.0345 27.9673L46.1898 27.8271M45.5365 27.6749L45.7069 28.145C45.6618 28.1613 45.6132 28.176 45.5614 28.1874C45.5546 28.1891 45.546 28.1911 45.5364 28.1931L45.5313 28.1941L45.5313 28.1941C45.4692 28.2062 45.4096 28.2122 45.3544 28.2146M45.5365 27.6749C45.5065 27.6858 45.4758 27.6947 45.4446 27.701L45.6346 27.631C45.6107 27.6441 45.5858 27.6554 45.5607 27.6656C45.5591 27.6662 45.5575 27.6669 45.5559 27.6675C45.5494 27.6701 45.543 27.6727 45.5365 27.6749ZM45.3544 28.2146L45.3324 27.7151L45.3557 28.2146C45.3553 28.2146 45.3549 28.2146 45.3544 28.2146ZM45.3544 28.2146C45.3331 28.2156 45.3154 28.2153 45.3079 28.2151L45.3026 28.215L45.3006 28.215M45.3006 28.215C45.3014 28.215 45.3021 28.215 45.3028 28.215C45.3003 28.215 45.2989 28.2149 45.3 28.215L45.3006 28.215ZM46.1898 27.8271C46.3931 27.6091 46.5214 27.3131 46.5214 26.9797V13.6099C46.5214 11.7206 45.0256 10.1665 43.1534 10.1665H34.4059C33.4776 10.1665 32.6393 10.5515 32.0327 11.1676L32.0327 11.1676L32.0308 11.1695L32.0301 11.1702C31.6542 11.5527 31.367 12.0254 31.2007 12.5531C31.1977 12.5613 31.1939 12.5722 31.1901 12.5846C31.1603 12.6823 31.1368 12.7792 31.1171 12.8718L31.115 12.8794C31.1132 12.8862 31.1108 12.896 31.1082 12.9076L31.1081 12.9075L31.1062 12.9171C31.0866 13.0164 31.0733 13.1138 31.0628 13.2045C31.0628 13.2047 31.0627 13.205 31.0627 13.2052L31.0598 13.2236C31.0585 13.2319 31.057 13.2432 31.0556 13.2564L31.0556 13.2564L31.0555 13.2578C31.0438 13.3739 31.0378 13.4914 31.0378 13.6101V17.3121V22.5877C31.0378 24.4772 32.5337 26.0311 34.4059 26.0311H37.9816H40.2662C40.6375 26.0311 41.0042 26.1213 41.3364 26.295L41.3364 26.295L44.744 28.0765C44.7536 28.0817 44.762 28.0858 44.7686 28.0888C44.7691 28.0891 44.7697 28.0893 44.7702 28.0896C44.8223 28.1154 44.873 28.1357 44.9214 28.1522L44.9226 28.1526C44.9427 28.1594 44.96 28.1642 44.9702 28.167L44.9824 28.1702L44.9859 28.1711L46.1898 27.8271ZM44.7564 28.0826L44.7572 28.0831L44.7564 28.0826Z" fill="#656F94" stroke="white"/>
<path fill-rule="evenodd" clip-rule="evenodd" d="M62.3696 27.7155C61.6224 27.7155 61.0166 27.0938 61.0166 26.3267V14.6391C61.0166 13.8721 61.6224 13.2505 62.3696 13.2505C63.1168 13.2505 63.7226 13.8721 63.7226 14.6391V26.3267C63.7226 27.0938 63.1168 27.7155 62.3696 27.7155" fill="#656F94"/>
<path fill-rule="evenodd" clip-rule="evenodd" d="M54.2514 27.7155C53.5042 27.7155 52.8984 27.0938 52.8984 26.3267V14.6391C52.8984 13.8721 53.5042 13.2505 54.2514 13.2505C54.9987 13.2505 55.6045 13.8721 55.6045 14.6391V26.3267C55.6045 27.0938 54.9987 27.7155 54.2514 27.7155" fill="#656F94"/>
<path fill-rule="evenodd" clip-rule="evenodd" d="M78.5818 27.7155C77.8344 27.7155 77.2286 27.0938 77.2286 26.3267V14.6391C77.2286 13.8721 77.8344 13.2505 78.5818 13.2505C79.329 13.2505 79.9348 13.8721 79.9348 14.6391V26.3267C79.9348 27.0938 79.329 27.7155 78.5818 27.7155" fill="#656F94"/>
<path fill-rule="evenodd" clip-rule="evenodd" d="M62.3697 21.8716H54.2515C53.5042 21.8716 52.8984 21.2499 52.8984 20.483C52.8984 19.716 53.5042 19.0942 54.2515 19.0942H62.3697C63.1169 19.0942 63.7227 19.716 63.7227 20.483C63.7227 21.2499 63.1169 21.8716 62.3697 21.8716" fill="#656F94"/>
<path fill-rule="evenodd" clip-rule="evenodd" d="M86.9523 18.921C85.3357 18.921 84.0207 20.2706 84.0207 21.9296C84.0207 23.5888 85.3357 24.9384 86.9523 24.9384C88.5688 24.9384 89.8838 23.5888 89.8838 21.9296C89.8838 20.2706 88.5688 18.921 86.9523 18.921M86.9523 27.7156C83.8437 27.7156 81.3147 25.1201 81.3147 21.9296C81.3147 18.7391 83.8437 16.1436 86.9523 16.1436C90.0608 16.1436 92.5899 18.7391 92.5899 21.9296C92.5899 25.1201 90.0608 27.7156 86.9523 27.7156" fill="#656F94"/>
<path fill-rule="evenodd" clip-rule="evenodd" d="M70.7133 27.7156C67.6047 27.7156 65.0758 25.1201 65.0758 21.9296C65.0758 18.7391 67.4561 16.1436 70.5647 16.1436C73.4984 16.1436 75.6045 18.0904 75.8713 21.0858C75.9392 21.8497 75.3911 22.5252 74.6471 22.5951C73.9048 22.6672 73.2444 22.1025 73.1764 21.3385C73.0378 19.7824 71.9382 18.921 70.4125 18.921C68.7962 18.921 67.7818 20.2706 67.7818 21.9296C67.7818 23.5887 69.0969 24.9382 70.7133 24.9382C71.4535 24.9382 72.6195 24.3688 73.1625 23.8533C73.711 23.3326 74.5668 23.3667 75.0745 23.9297C75.5819 24.4928 75.4921 25.3149 74.9999 25.892C74.0242 27.0365 72.1367 27.7156 70.7133 27.7156" fill="#656F94"/>
<path fill-rule="evenodd" clip-rule="evenodd" d="M74.4471 22.6016H67.2192C66.6628 22.6016 66.2118 22.1387 66.2118 21.5677C66.2118 20.9966 66.6628 20.5337 67.2192 20.5337H74.4471C75.0035 20.5337 75.4545 20.9966 75.4545 21.5677C75.4545 22.1387 75.0035 22.6016 74.4471 22.6016" fill="#656F94"/>
</svg>
