<svg width="120" height="40" viewBox="0 0 120 40" fill="none" xmlns="http://www.w3.org/2000/svg">
<path fill-rule="evenodd" clip-rule="evenodd" d="M69.764 28.3743C69.3773 28.3743 69.0087 28.2094 68.753 27.9218C67.6719 26.7064 67.0636 25.7261 66.719 24.6431C66.2679 23.225 66.2679 21.6345 66.2679 18.9993V15.1078H59.2289C58.8843 15.1078 58.604 14.828 58.604 14.4842V13.8604H66.4677C67.0464 13.8604 67.5172 14.3304 67.5172 14.9082V18.9993C67.5172 23.9691 67.5168 24.9084 70.6114 28.0787C70.3713 28.2702 70.0753 28.3743 69.764 28.3743" fill="#656F94"/>
<path fill-rule="evenodd" clip-rule="evenodd" d="M72.3971 24.0678C72.0047 24.0678 71.6324 23.8977 71.3759 23.6012C70.5376 22.6319 69.063 20.7453 67.9489 19.1204C69.1457 17.4611 70.3722 15.4552 70.9124 14.4978C71.1663 14.0477 71.6458 13.7681 72.1638 13.7681C72.3415 13.7681 72.5139 13.8002 72.6784 13.8638C72.3871 14.427 71.1905 16.6833 69.5214 19.0532L69.4649 19.1335L69.5214 19.2139C71.1246 21.4926 72.7972 23.3349 73.2177 23.789C72.9832 23.9695 72.6965 24.0678 72.3973 24.0678H72.3971Z" fill="#656F94"/>
<path fill-rule="evenodd" clip-rule="evenodd" d="M81.009 28.374C80.6966 28.374 80.4021 28.2661 80.167 28.0681C81.2112 27.0476 81.7871 26.2068 82.0828 25.2763L82.1599 25.034L81.914 25.099C81.2717 25.2683 80.5761 25.4348 79.8444 25.5946V14.8632C79.8444 14.3244 80.2491 13.8765 80.7859 13.821C80.8939 13.8098 80.9922 13.7989 81.0695 13.7889C81.6858 13.7095 82.6229 13.5643 83.6503 13.3188C83.6955 13.6373 83.6256 13.957 83.4476 14.2318C83.2442 14.5461 82.9294 14.7567 82.5606 14.8245C82.0975 14.9097 81.6329 14.9815 81.217 15.032L81.0939 15.0469V24.0217L81.2683 23.9774C81.6037 23.8918 81.9361 23.8031 82.2622 23.7106L82.3578 23.6834L82.3636 23.5843C82.3956 23.0349 82.3956 22.432 82.3956 21.7342V15.9075H83.0203C83.3649 15.9075 83.6451 16.1873 83.6451 16.5311V21.7342C83.6451 24.332 83.6451 25.8999 82.0252 27.8918C81.7757 28.1981 81.4053 28.374 81.009 28.374Z" fill="#656F94"/>
<mask id="mask0" mask-type="alpha" maskUnits="userSpaceOnUse" x="31" y="8" width="58" height="24">
<path fill-rule="evenodd" clip-rule="evenodd" d="M31.3333 31.9278H88.4888V8.6665H31.3333V31.9278Z" fill="white"/>
</mask>
<g mask="url(#mask0)">
<path fill-rule="evenodd" clip-rule="evenodd" d="M75.8024 17.6323H77.5505V15.1075H75.8024V17.6323ZM75.8024 21.1559H77.5505V18.8798H75.8024V21.1559ZM75.8024 25.0864L75.965 25.0594C76.4136 24.9856 76.9097 24.9003 77.4359 24.8036L77.5505 24.7824V22.4032H75.8024V25.0864ZM77.5505 28.3743V26.0531L77.3857 26.083C76.2181 26.2932 75.2208 26.445 74.5898 26.5351C74.5596 26.5393 74.5296 26.5415 74.5003 26.5415C74.1862 26.5415 73.9201 26.3066 73.8812 25.9953L73.8045 25.3838C73.9337 25.3667 74.1487 25.3376 74.4331 25.2963L74.553 25.2791V15.1076H74.413C74.0686 15.1076 73.7881 14.8278 73.7881 14.484V13.8604H77.7503C78.329 13.8604 78.7999 14.3302 78.7999 14.9082V28.3743H77.5505Z" fill="#656F94"/>
<path fill-rule="evenodd" clip-rule="evenodd" d="M85.9404 24.4223H87.2395V15.1075H85.9404V24.4223ZM84.691 28.3743V14.9082C84.691 14.3302 85.1619 13.8604 85.7406 13.8604H87.4392C88.018 13.8604 88.4888 14.3302 88.4888 14.9082V24.622C88.4888 25.1998 88.018 25.6698 87.4392 25.6698H85.9404V28.3743H84.691Z" fill="#656F94"/>
<path fill-rule="evenodd" clip-rule="evenodd" d="M31.3334 27.6237V12.9706C31.3334 10.5934 33.2637 8.6665 35.6448 8.6665H50.371C52.7523 8.6665 54.6824 10.5934 54.6824 12.9706V27.6237C54.6824 30.0007 52.7523 31.9278 50.371 31.9278H35.6448C33.2637 31.9278 31.3334 30.0007 31.3334 27.6237" fill="#656F94"/>
<path fill-rule="evenodd" clip-rule="evenodd" d="M41.417 28.543H39.8441C39.607 28.543 39.3928 28.4278 39.2562 28.2269C39.0965 27.9926 39.0644 27.6759 39.1711 27.3979L39.8477 25.4245H38.0402C37.0729 25.4245 36.2501 25.0428 35.5948 24.2898C35.0552 23.67 34.6241 22.7827 34.3137 21.6531C33.7402 19.5667 33.6605 16.9785 33.6503 15.2133C33.6491 14.9898 33.7354 14.7792 33.8932 14.6206C34.0514 14.4617 34.2624 14.3743 34.4869 14.3743H36.5565C37.1864 14.3743 37.7367 14.895 38.0574 15.4746L40.1339 15.4744L39.6825 14.2724C39.5754 13.9992 39.6084 13.6835 39.769 13.4478C39.91 13.2402 40.1311 13.1211 40.3757 13.1211H42.6049C43.1522 13.1211 43.6249 13.5281 44.0254 13.9112L45.7688 15.4744H47.2391C48.3144 15.4744 49.1345 15.7207 49.746 16.2274C50.2799 16.67 50.6563 17.3173 50.894 18.2032C51.3477 18.5149 51.756 18.9592 52.0549 19.4696C52.4686 20.1757 52.6784 20.9888 52.6784 21.8861C52.6784 22.7669 52.3835 23.6177 51.8697 24.2202C51.1116 25.109 50.0486 25.4245 49.3684 25.4245H45.5458L43.8093 27.4801C43.0557 28.5131 41.5833 28.543 41.417 28.543" fill="white"/>
<path fill-rule="evenodd" clip-rule="evenodd" d="M40.7648 20.3253C40.7648 20.7552 40.4156 21.1036 39.9851 21.1036C39.5544 21.1036 39.2054 20.7552 39.2054 20.3253C39.2054 19.8955 39.5544 19.5469 39.9851 19.5469C40.4156 19.5469 40.7648 19.8955 40.7648 20.3253" fill="#656F94"/>
<path fill-rule="evenodd" clip-rule="evenodd" d="M43.7961 20.3253C43.7961 20.7552 43.4471 21.1036 43.0164 21.1036C42.5859 21.1036 42.2367 20.7552 42.2367 20.3253C42.2367 19.8955 42.5859 19.5469 43.0164 19.5469C43.4471 19.5469 43.7961 19.8955 43.7961 20.3253" fill="#656F94"/>
<path fill-rule="evenodd" clip-rule="evenodd" d="M46.8276 20.3253C46.8276 20.7552 46.4784 21.1036 46.0479 21.1036C45.6172 21.1036 45.2682 20.7552 45.2682 20.3253C45.2682 19.8955 45.6172 19.5469 46.0479 19.5469C46.4784 19.5469 46.8276 19.8955 46.8276 20.3253" fill="#656F94"/>
</g>
</svg>
