<svg width="120" height="40" viewBox="0 0 120 40" fill="none" xmlns="http://www.w3.org/2000/svg">
<path fill-rule="evenodd" clip-rule="evenodd" d="M13.3339 20.0383C13.3339 26.0709 18.3636 30.9446 24.494 30.9446C30.6243 30.9446 35.654 26.0709 35.654 20.0383C35.654 13.9275 30.6243 9.05518 24.494 9.05518C18.3636 9.05518 13.3339 13.9275 13.3339 20.0383ZM27.8779 20.1174L21.5819 13.7372C21.919 13.3948 22.4724 13.3628 23.1034 13.7257L31.1524 18.3497C32.0557 18.9248 31.9284 20.0411 31.1524 20.2892L28.1414 21.0239C28.211 20.7088 28.1237 20.3664 27.8779 20.1174ZM19.7256 24.5808L19.7846 15.4327C19.8406 14.3778 20.8903 13.9277 21.4975 14.4628L23.6514 16.653C23.3386 16.7511 23.0799 16.9964 22.9829 17.3298L20.4968 25.867C20.0255 25.7519 19.721 25.2979 19.7256 24.5808ZM23.0069 22.8472L31.789 20.69C31.9232 21.1477 31.6743 21.6338 31.0387 21.9882L22.9308 26.5123C21.9713 26.9919 21.049 26.3257 21.2178 25.5424L22.0749 22.618C22.2594 22.7818 22.5024 22.8775 22.7585 22.8775C22.8403 22.8775 22.9236 22.8677 23.0069 22.8472Z" fill="#656F94"/>
<path fill-rule="evenodd" clip-rule="evenodd" d="M53.1146 13.0684L51.8672 27.056H54.5918L55.69 14.7398H56.2952L55.3826 24.9773H55.0493L54.9005 26.6488H57.2141C57.6244 26.6488 57.9867 26.3219 58.0228 25.9192L59.1685 13.0684H53.1146ZM46.6028 13.0685C45.9867 13.0685 45.4433 13.5585 45.3896 14.1627L44.2397 27.0562H51.0852L51.4068 23.4497H48.7862L48.5916 25.4021H47.2627L47.6353 21.2271H50.4848C51.1006 21.2271 51.644 20.7372 51.6979 20.1323L52.328 13.0685H46.6028ZM48.213 14.7399H49.303L49.1319 16.6617H48.0419L48.213 14.7399ZM47.9255 17.9686H49.0149L48.8412 19.9201H47.7515L47.9255 17.9686Z" fill="#656F94"/>
<path fill-rule="evenodd" clip-rule="evenodd" d="M67.3808 12.7036C67.1273 12.7036 66.8743 12.7884 66.6627 12.9433L60.4472 17.5019H64.2353C64.5058 17.5019 64.7756 17.4051 64.9951 17.2302L67.9463 14.8718L70.4429 17.2521C70.632 17.432 70.8874 17.5319 71.1629 17.5319H75.0343L69.8191 12.9556C69.6336 12.7926 69.3898 12.7036 69.1296 12.7036H67.3808ZM61.2126 18.2147L61.0606 19.9159H73.9288L74.0808 18.2147H61.2126ZM61.7015 20.4929C61.2909 20.4929 60.9286 20.8195 60.8926 21.2225L60.3723 27.0563H72.3504C72.9663 27.0563 73.5093 26.5663 73.5634 25.9616L74.051 20.4929H61.7015ZM63.8678 21.7995H70.9075L70.5554 25.7494H63.5156L63.8678 21.7995Z" fill="#656F94"/>
<path fill-rule="evenodd" clip-rule="evenodd" d="M78.1847 13.0234C77.7742 13.0234 77.4124 13.3501 77.376 13.7531L77.2945 14.6651H82.4409L81.7143 22.8111H76.2359L76.0869 24.4823H81.5648L81.3319 27.1003H84.3587L84.5922 24.4823H90.1308L90.2804 22.8111H84.7412L85.4678 14.6651H90.6738L90.8197 13.0234H78.1847ZM87.678 15.6749L85.8423 22.1957H88.7475L90.5838 15.6749H87.678ZM77.0233 15.6749L77.9074 22.1957H80.7828L79.8379 15.6749H77.0233Z" fill="#656F94"/>
<path fill-rule="evenodd" clip-rule="evenodd" d="M94.2545 13.1021L92.6608 17.5936C92.4967 18.0558 92.8122 18.5067 93.2993 18.5067H102.842L102.887 18.9524H106L105.816 13.8359H102.577L102.749 16.8058H96.2416L97.3719 13.1021H94.2545ZM93.7948 19.4191C93.1783 19.4191 92.6353 19.9088 92.5818 20.5136L92.0011 27.022H103.931C104.547 27.022 105.09 26.5315 105.145 25.9273L105.725 19.4191H93.7948ZM95.5563 21.0905H102.549L102.169 25.3502H95.1769L95.5563 21.0905Z" fill="#656F94"/>
<mask id="mask0" mask-type="alpha" maskUnits="userSpaceOnUse" x="92" y="13" width="14" height="15">
<path fill-rule="evenodd" clip-rule="evenodd" d="M94.2545 13.1021L92.6608 17.5936C92.4967 18.0558 92.8122 18.5067 93.2993 18.5067H102.842L102.887 18.9524H106L105.816 13.8359H102.577L102.749 16.8058H96.2416L97.3719 13.1021H94.2545ZM93.7948 19.4191C93.1783 19.4191 92.6353 19.9088 92.5818 20.5136L92.0011 27.022H103.931C104.547 27.022 105.09 26.5315 105.145 25.9273L105.725 19.4191H93.7948ZM95.5563 21.0905H102.549L102.169 25.3502H95.1769L95.5563 21.0905Z" fill="white"/>
</mask>
<g mask="url(#mask0)">
</g>
</svg>
