<svg width="120" height="40" viewBox="0 0 120 40" fill="none" xmlns="http://www.w3.org/2000/svg">
<mask id="mask0" mask-type="alpha" maskUnits="userSpaceOnUse" x="10" y="11" width="10" height="11">
<path fill-rule="evenodd" clip-rule="evenodd" d="M18.3916 11.605C17.9207 11.6089 17.4771 11.8329 17.2339 12.1459L10.4232 20.7402C10.2592 20.9514 10.5313 21.223 10.7422 21.0591L19.3416 14.2524C19.8944 13.8234 20.1704 12.7686 19.4448 12.0431C19.1363 11.7347 18.7682 11.6073 18.4143 11.605H18.3916Z" fill="white"/>
</mask>
<g mask="url(#mask0)">
<path fill-rule="evenodd" clip-rule="evenodd" d="M18.3916 11.605C17.9207 11.6089 17.4771 11.8329 17.2339 12.1459V12.1459L10.4232 20.7402C10.2592 20.9514 10.5313 21.223 10.7422 21.0591V21.0591L19.3416 14.2524C19.8944 13.8234 20.1704 12.7686 19.4448 12.0431V12.0431C19.1363 11.7347 18.7682 11.6073 18.4143 11.605V11.605H18.3916Z" fill="#656F94"/>
</g>
<mask id="mask1" mask-type="alpha" maskUnits="userSpaceOnUse" x="16" y="12" width="10" height="11">
<path fill-rule="evenodd" clip-rule="evenodd" d="M23.0513 13.2225L16.2409 21.8169C16.0766 22.0281 16.3483 22.2997 16.5596 22.1358L25.159 15.329C25.7118 14.9001 25.9881 13.8452 25.2622 13.1194C24.9507 12.8084 24.5787 12.6816 24.2218 12.6816C23.746 12.6816 23.2965 12.9069 23.0513 13.2225Z" fill="white"/>
</mask>
<g mask="url(#mask1)">
<path fill-rule="evenodd" clip-rule="evenodd" d="M23.0513 13.2225L16.2409 21.8169C16.0766 22.0281 16.3483 22.2997 16.5596 22.1358V22.1358L25.159 15.329C25.7118 14.9001 25.9881 13.8452 25.2622 13.1194V13.1194C24.9507 12.8084 24.5787 12.6816 24.2218 12.6816V12.6816C23.746 12.6816 23.2965 12.9069 23.0513 13.2225" fill="#656F94"/>
</g>
<mask id="mask2" mask-type="alpha" maskUnits="userSpaceOnUse" x="17" y="18" width="10" height="10">
<path fill-rule="evenodd" clip-rule="evenodd" d="M24.1288 19.0365L17.3177 27.6309C17.1902 27.7951 17.3262 27.9957 17.4925 28H17.5027C17.5471 27.999 17.5934 27.9836 17.6371 27.9498L26.2362 21.143C26.7892 20.7141 27.0653 19.6595 26.339 18.9337C26.0279 18.6227 25.6559 18.4956 25.2987 18.4956C24.8228 18.4956 24.3736 18.7209 24.1288 19.0365Z" fill="white"/>
</mask>
<g mask="url(#mask2)">
<path fill-rule="evenodd" clip-rule="evenodd" d="M24.1288 19.0365L17.3177 27.6309C17.1902 27.7951 17.3262 27.9957 17.4925 28V28H17.5027C17.5471 27.999 17.5934 27.9836 17.6371 27.9498V27.9498L26.2362 21.143C26.7892 20.7141 27.0653 19.6595 26.339 18.9337V18.9337C26.0279 18.6227 25.6559 18.4956 25.2987 18.4956V18.4956C24.8228 18.4956 24.3736 18.7209 24.1288 19.0365" fill="#656F94"/>
</g>
<path fill-rule="evenodd" clip-rule="evenodd" d="M87.6385 22.4891C87.1597 22.4891 86.7282 22.3016 86.4242 21.9614C86.0831 21.5797 85.9307 21.0533 85.9954 20.4789C86.1282 19.3008 87.1718 18.3061 88.2746 18.3061C88.7534 18.3061 89.1846 18.4933 89.4889 18.8338C89.8303 19.2155 89.9824 19.7416 89.9177 20.316C89.7846 21.494 88.7409 22.4891 87.6385 22.4891M90.5743 17.8644C89.99 17.2115 89.1734 16.8516 88.2747 16.8516C86.4361 16.8516 84.7648 18.4056 84.5496 20.316C84.4391 21.2931 84.727 22.2458 85.3389 22.9306C85.9231 23.5838 86.7401 23.9437 87.6385 23.9437C88.1784 23.9437 88.741 23.7523 89.2612 23.438C89.0256 24.4843 88.2888 25.288 87.1715 25.288C86.2403 25.288 85.4191 24.971 84.8052 24.4607L84.0737 25.6328C84.9087 26.2604 85.909 26.5911 87.1439 26.5911C88.9999 26.5911 90.2759 25.4121 90.7176 23.3437L91.1638 21.2504C91.2657 20.9946 91.3347 20.7354 91.3636 20.4789C91.4737 19.5019 91.1862 18.5492 90.5743 17.8644" fill="#656F94"/>
<path fill-rule="evenodd" clip-rule="evenodd" d="M72.6555 22.4891C72.1768 22.4891 71.7453 22.3016 71.441 21.9614C71.0999 21.5797 70.9474 21.0533 71.0122 20.4789C71.1449 19.3008 72.1889 18.3061 73.2914 18.3061C73.7702 18.3061 74.2013 18.4933 74.5056 18.8338C74.847 19.2155 74.9992 19.7416 74.9345 20.316C74.8014 21.494 73.7577 22.4891 72.6555 22.4891M75.591 17.8644C75.0067 17.2115 74.1901 16.8516 73.2914 16.8516C71.4528 16.8516 69.7815 18.4056 69.5663 20.316C69.4562 21.2931 69.7437 22.2458 70.3559 22.9306C70.9399 23.5838 71.7568 23.9437 72.6555 23.9437C73.1991 23.9437 73.7662 23.7493 74.2897 23.4311L74.2168 23.7644H75.6722L76.3034 20.8789C76.3386 20.7453 76.3655 20.6119 76.3807 20.4789C76.4904 19.5019 76.2029 18.5492 75.591 17.8644" fill="#656F94"/>
<path fill-rule="evenodd" clip-rule="evenodd" d="M93.8827 19.9037H97.3321C97.3459 19.814 97.3459 19.745 97.3459 19.683C97.3459 18.7591 96.7732 18.2695 95.9313 18.2695C94.7105 18.2695 94.1308 19.083 93.8827 19.9037V19.9037ZM97.9735 23.1302C97.1734 23.7095 96.4005 23.944 95.366 23.944C93.3651 23.944 92.2544 22.7026 92.2544 21.048C92.2544 19.338 93.3789 16.9868 96.0075 16.9868C97.6699 16.9868 98.7806 17.9937 98.7806 19.6414C98.7806 20.1101 98.6702 20.6618 98.5322 20.9929H93.7239C93.7305 22.0546 94.3723 22.6819 95.5244 22.6819C96.2421 22.6819 96.8007 22.4546 97.3597 22.0615L97.9735 23.1302Z" fill="#656F94"/>
<mask id="mask3" mask-type="alpha" maskUnits="userSpaceOnUse" x="103" y="16" width="8" height="8">
<path fill-rule="evenodd" clip-rule="evenodd" d="M103.514 16.9937H110.068V23.9298H103.514V16.9937Z" fill="white"/>
</mask>
<g mask="url(#mask3)">
<path fill-rule="evenodd" clip-rule="evenodd" d="M109.309 18.8137C108.798 18.4899 107.902 18.2482 107.233 18.2482C106.467 18.2482 105.991 18.5172 105.942 18.9655C105.88 19.5379 106.329 19.6689 106.894 19.7583L107.371 19.8341C108.916 20.0893 109.544 20.8269 109.426 21.8408C109.289 23.0405 108.212 23.9298 106.481 23.9298C105.515 23.9298 104.349 23.6471 103.514 23.0336L104.314 21.9649C104.887 22.3715 105.591 22.6749 106.46 22.6749C107.371 22.6749 107.881 22.3646 107.936 21.8684C107.978 21.4752 107.674 21.2339 106.963 21.1235L106.467 21.0476C104.976 20.8338 104.321 20.0824 104.438 19.0413C104.59 17.7313 105.66 16.9937 107.246 16.9937C108.392 16.9937 109.371 17.2623 110.068 17.7106L109.309 18.8137Z" fill="#656F94"/>
</g>
<path fill-rule="evenodd" clip-rule="evenodd" d="M103.962 16.9868C101.587 16.8971 100.114 18.3763 99.7759 20.2046L99.0198 23.7647H100.476L101.208 20.312C101.524 18.8873 102.788 18.287 103.701 18.3786L103.962 16.9868Z" fill="#656F94"/>
<path fill-rule="evenodd" clip-rule="evenodd" d="M82.8405 23.7677H81.3802L82.1432 20.1515C82.3161 19.229 81.649 18.4769 80.862 18.4782C79.8203 18.4799 79.0273 19.6773 78.8542 20.5998L78.1861 23.7677H76.7303L77.4599 20.3098C77.801 18.49 79.2176 16.8516 81.1669 16.8516C82.8514 16.8516 83.9443 18.3321 83.6032 20.1515L82.8405 23.7677Z" fill="#656F94"/>
<path fill-rule="evenodd" clip-rule="evenodd" d="M66.0593 18.2898C67.729 18.2898 68.074 17.4487 68.074 16.759C68.074 16.0421 67.5082 15.5872 66.3971 15.5872H62.7164L63.0305 14.1113H66.5489C68.6189 14.1113 69.7158 15.1734 69.7158 16.5866C69.7158 17.7903 68.9787 19.4452 66.5936 19.676L68.7362 23.7645H66.8802L64.8855 19.7033H63.4308L62.5685 23.7645H60.9747L62.1406 18.2898H66.0593Z" fill="#656F94"/>
<path fill-rule="evenodd" clip-rule="evenodd" d="M55.8771 19.9569H59.2874C59.3009 19.8683 59.3009 19.8 59.3009 19.7385C59.3009 18.8252 58.7347 18.3414 57.9026 18.3414C56.6953 18.3414 56.1225 19.1457 55.8771 19.9569V19.9569ZM59.922 23.1475C59.1304 23.7202 58.3667 23.9518 57.3434 23.9518C55.3655 23.9518 54.2676 22.7248 54.2676 21.0886C54.2676 19.3983 55.3789 17.0737 57.9779 17.0737C59.6216 17.0737 60.7195 18.0688 60.7195 19.6981C60.7195 20.1618 60.6104 20.707 60.474 21.0341H55.72C55.7269 22.0841 56.3615 22.7044 57.5001 22.7044C58.2099 22.7044 58.762 22.4795 59.3147 22.091L59.922 23.1475Z" fill="#656F94"/>
<path fill-rule="evenodd" clip-rule="evenodd" d="M41.9388 26.5693H43.6953L50.3562 17.0737H48.5998L45.2355 21.8657L44.4254 17.0737H42.9667L44.0581 23.5452L41.9388 26.5693Z" fill="#656F94"/>
<path fill-rule="evenodd" clip-rule="evenodd" d="M40.5387 21.1705C40.3271 22.1249 39.4405 22.3295 38.1855 22.3295H35.7804L36.3394 19.6845H38.7517C39.9932 19.6845 40.7914 20.0391 40.5387 21.1705V21.1705ZM39.4017 15.5567C40.3635 15.5567 41.1903 15.8877 41.1903 16.7124C41.1903 17.6602 40.5426 18.2464 38.8441 18.2464H35.1764L33.999 23.7747H37.8188C40.0353 23.7747 41.5357 23.3793 42.0132 21.2731C42.2521 20.2163 41.7066 19.2892 40.9084 18.9279C41.9521 18.5939 42.6543 17.6737 42.6543 16.5695C42.6543 15.0289 41.3911 14.1113 39.5903 14.1113H36.0571L35.7495 15.5567H39.4017Z" fill="#656F94"/>
<path fill-rule="evenodd" clip-rule="evenodd" d="M51.7648 18.3692H54.1998L54.4794 17.0742H52.0447L52.4322 15.2676H50.9863L50.5982 17.0742H48.9538L48.6742 18.3692H50.3189L49.7041 21.273C49.3426 22.9706 50.1608 23.9454 51.8049 23.9454C52.54 23.9454 53.1246 23.7253 53.6227 23.4133L53.162 22.2274C52.7529 22.4796 52.3642 22.6025 51.9754 22.6025C51.3409 22.6025 50.9521 22.2001 51.143 21.3003L51.7648 18.3692Z" fill="#656F94"/>
</svg>
