<svg width="120" height="40" viewBox="0 0 120 40" fill="none" xmlns="http://www.w3.org/2000/svg">
<mask id="mask0" mask-type="alpha" maskUnits="userSpaceOnUse" x="11" y="11" width="19" height="18">
<path fill-rule="evenodd" clip-rule="evenodd" d="M16.4742 12.0037C14.7113 12.7426 13.2127 14.0881 12.3114 15.7759C11.395 17.4605 11.1145 19.4632 11.504 21.3399C11.889 23.226 12.9754 24.9514 14.4864 26.1513C15.9915 27.3629 17.935 28.0381 19.8749 28.0428L19.8837 28.0432L19.9005 28.0428C20.7968 28.036 21.5171 27.313 21.5109 26.4276C21.5036 25.5429 20.7715 24.8307 19.8749 24.8376C18.651 24.8474 17.4395 24.444 16.4789 23.6929C16.0006 23.3181 15.5823 22.8659 15.2572 22.3561C14.934 21.8454 14.6952 21.2843 14.5602 20.6971C14.2933 19.5199 14.4399 18.2416 15.0038 17.1611C15.5552 16.072 16.5115 15.1743 17.6502 14.6712C18.783 14.1628 20.1163 14.0516 21.335 14.3607C22.5542 14.6644 23.6688 15.3964 24.4261 16.4006C25.1925 17.4005 25.5783 18.659 25.5234 19.9222C25.4785 21.1835 24.983 22.4135 24.154 23.4199L24.0055 23.6004L23.9836 23.6286C23.6402 24.0804 23.7324 24.7217 24.1902 25.0611L28.3618 28.1519C28.5329 28.2783 28.7743 28.2833 28.952 28.149C29.1666 27.9869 29.2072 27.6842 29.0434 27.4723L26.5718 24.2851C27.5076 23.0909 28.0868 21.6024 28.1899 20.0749C28.3281 18.2195 27.7741 16.3031 26.6599 14.7882C25.5571 13.2644 23.9127 12.1326 22.0737 11.6357C21.3372 11.4342 20.5737 11.3335 19.8098 11.3335C18.6708 11.3335 17.5306 11.557 16.4742 12.0037Z" fill="white"/>
</mask>
<g mask="url(#mask0)">
<path fill-rule="evenodd" clip-rule="evenodd" d="M16.4742 12.0037C14.7113 12.7426 13.2127 14.0881 12.3114 15.7759V15.7759C11.395 17.4605 11.1145 19.4632 11.504 21.3399V21.3399C11.889 23.226 12.9754 24.9514 14.4864 26.1513V26.1513C15.9915 27.3629 17.935 28.0381 19.8749 28.0428V28.0428L19.8837 28.0432L19.9005 28.0428C20.7968 28.036 21.5171 27.313 21.5109 26.4276V26.4276C21.5036 25.5429 20.7715 24.8307 19.8749 24.8376V24.8376C18.651 24.8474 17.4395 24.444 16.4789 23.6929V23.6929C16.0006 23.3181 15.5823 22.8659 15.2572 22.3561V22.3561C14.934 21.8454 14.6952 21.2843 14.5602 20.6971V20.6971C14.2933 19.5199 14.4399 18.2416 15.0038 17.1611V17.1611C15.5552 16.072 16.5115 15.1743 17.6502 14.6712V14.6712C18.783 14.1628 20.1163 14.0516 21.335 14.3607V14.3607C22.5542 14.6644 23.6688 15.3964 24.4261 16.4006V16.4006C25.1925 17.4005 25.5783 18.659 25.5234 19.9222V19.9222C25.4785 21.1835 24.983 22.4135 24.154 23.4199V23.4199L24.0055 23.6004L23.9836 23.6286C23.6402 24.0804 23.7324 24.7217 24.1902 25.0611V25.0611L28.3618 28.1519C28.5329 28.2783 28.7743 28.2833 28.952 28.149V28.149C29.1666 27.9869 29.2072 27.6842 29.0434 27.4723V27.4723L26.5718 24.2851C27.5076 23.0909 28.0868 21.6024 28.1899 20.0749V20.0749C28.3281 18.2195 27.7741 16.3031 26.6599 14.7882V14.7882C25.5571 13.2644 23.9127 12.1326 22.0737 11.6357V11.6357C21.3372 11.4342 20.5737 11.3335 19.8098 11.3335V11.3335C18.6708 11.3335 17.5306 11.557 16.4742 12.0037" fill="#656F94"/>
</g>
<path fill-rule="evenodd" clip-rule="evenodd" d="M75.068 19.6418H69.9193L68.9455 24.1708H67.2971L69.5836 13.5679H76.557L76.2103 15.1506H70.8854L70.2722 18.0211H75.4208L75.068 19.6418Z" fill="#656F94"/>
<path fill-rule="evenodd" clip-rule="evenodd" d="M79.6117 14.5166C79.6117 15.0843 79.1616 15.5154 78.5867 15.5154C78.0119 15.5154 77.5756 15.0843 77.5756 14.5166C77.5756 13.9489 78.0119 13.5044 78.5867 13.5044C79.1616 13.5044 79.6117 13.9489 79.6117 14.5166V14.5166ZM77.305 24.171H75.6793L77.2564 16.8678H78.8822L77.305 24.171Z" fill="#656F94"/>
<path fill-rule="evenodd" clip-rule="evenodd" d="M90.9033 22.7988C90.3727 22.7988 89.894 22.5934 89.5565 22.2203C89.1784 21.8025 89.0095 21.2255 89.0815 20.5964C89.2289 19.3058 90.3862 18.2152 91.6087 18.2152C92.1396 18.2152 92.6175 18.4207 92.9551 18.7934C93.3335 19.2115 93.5025 19.7886 93.4308 20.4177C93.2834 21.7083 92.1261 22.7988 90.9033 22.7988M95.0343 20.5963C95.1871 19.5296 94.8375 18.4817 94.1585 17.7316C93.5109 17.0159 92.6051 16.6216 91.6087 16.6216C89.57 16.6216 87.7168 18.3246 87.478 20.4176C87.3555 21.4883 87.6748 22.5322 88.3535 23.2823C89.0014 23.998 89.9065 24.3923 90.9033 24.3923C91.5063 24.3923 92.1904 24.2529 92.7708 23.9041C93.3514 23.5549 94.7293 22.7265 95.0343 20.5963" fill="#656F94"/>
<path fill-rule="evenodd" clip-rule="evenodd" d="M94.9752 20.9298L96.5787 13.5928H94.9603L93.2924 21.4166L94.9752 20.9298Z" fill="#656F94"/>
<path fill-rule="evenodd" clip-rule="evenodd" d="M85.5403 24.1707H83.9401L84.7761 20.2556C85.0525 18.9834 84.5263 18.2908 83.4743 18.3139C82.333 18.3392 81.44 19.4915 81.1727 20.7409L80.4406 24.1707H78.8452L79.6449 20.4271C80.0183 18.4572 81.5709 16.6831 83.7065 16.6831C85.5524 16.6831 86.7499 18.2857 86.3762 20.2556L85.5403 24.1707Z" fill="#656F94"/>
<path fill-rule="evenodd" clip-rule="evenodd" d="M97.9046 20.018H101.684C101.699 19.9208 101.699 19.8464 101.699 19.7793C101.699 18.779 101.072 18.2489 100.15 18.2489C98.8115 18.2489 98.1767 19.1296 97.9046 20.018V20.018ZM102.387 23.5113C101.51 24.1385 100.664 24.3924 99.5296 24.3924C97.3374 24.3924 96.1205 23.0487 96.1205 21.2572C96.1205 19.4058 97.3528 16.8604 100.233 16.8604C102.055 16.8604 103.272 17.9502 103.272 19.7344C103.272 20.2418 103.151 20.8391 102.999 21.1973H97.7305C97.7382 22.3471 98.4414 23.0263 99.7037 23.0263C100.49 23.0263 101.102 22.78 101.715 22.3547L102.387 23.5113Z" fill="#656F94"/>
<path fill-rule="evenodd" clip-rule="evenodd" d="M109.011 16.8328C106.408 16.7357 104.795 18.3376 104.424 20.3168L103.595 24.1706H105.191L105.993 20.4331C106.339 18.8904 107.724 18.2408 108.725 18.3397L109.011 16.8328Z" fill="#656F94"/>
<path fill-rule="evenodd" clip-rule="evenodd" d="M61.6463 19.9857H65.4259C65.4412 19.8886 65.4412 19.8139 65.4412 19.7467C65.4412 18.7464 64.8138 18.2167 63.8915 18.2167C62.5535 18.2167 61.9184 19.0974 61.6463 19.9857V19.9857ZM66.1291 23.4791C65.2518 24.1063 64.4057 24.3602 63.2717 24.3602C61.0795 24.3602 59.8625 23.0165 59.8625 21.2247C59.8625 19.3736 61.0945 16.8281 63.9745 16.8281C65.7967 16.8281 67.0136 17.918 67.0136 19.7018C67.0136 20.2096 66.8926 20.8068 66.7412 21.1651H61.4722C61.4803 22.3148 62.1831 22.9941 63.4454 22.9941C64.2316 22.9941 64.8437 22.7475 65.4562 22.3221L66.1291 23.4791Z" fill="#656F94"/>
<path fill-rule="evenodd" clip-rule="evenodd" d="M46.1992 27.2267H48.1461L55.5282 16.8281H53.581L49.853 22.0754L48.9553 16.8281H47.3387L48.5483 23.9153L46.1992 27.2267Z" fill="#656F94"/>
<path fill-rule="evenodd" clip-rule="evenodd" d="M44.6479 21.3147C44.4136 22.3598 43.431 22.5837 42.04 22.5837H39.3742L39.9937 19.6872H42.6671C44.0431 19.6872 44.9277 20.0754 44.6479 21.3147V21.3147ZM43.3878 15.1669C44.4538 15.1669 45.3701 15.5294 45.3701 16.4326C45.3701 17.4704 44.652 18.1121 42.7695 18.1121H38.705L37.4 24.1661H41.6333C44.0899 24.1661 45.7526 23.7331 46.2821 21.4267C46.5465 20.2694 45.9417 19.2543 45.0575 18.8589C46.2137 18.4931 46.9923 17.4852 46.9923 16.2758C46.9923 14.5891 45.5921 13.5845 43.5966 13.5845H39.681L39.3399 15.1669H43.3878Z" fill="#656F94"/>
<path fill-rule="evenodd" clip-rule="evenodd" d="M57.0889 18.2467H59.7876L60.0977 16.8283H57.399L57.8283 14.8501H56.2263L55.7963 16.8283H53.9734L53.6641 18.2467H55.4866L54.805 21.4267C54.4045 23.2853 55.3118 24.3527 57.1332 24.3527C57.9483 24.3527 58.5959 24.1119 59.148 23.7703L58.6372 22.4717C58.1838 22.748 57.753 22.8823 57.3222 22.8823C56.6194 22.8823 56.1883 22.4417 56.4 21.4566L57.0889 18.2467Z" fill="#656F94"/>
</svg>
