<svg width="120" height="40" viewBox="0 0 120 40" fill="none" xmlns="http://www.w3.org/2000/svg">
<path fill-rule="evenodd" clip-rule="evenodd" d="M20 14.0889V25.3602H28.1283V23.1833H22.1544V14.0889H20Z" fill="#656F94"/>
<path fill-rule="evenodd" clip-rule="evenodd" d="M32.9995 18.8199C31.7645 18.8199 30.7595 19.8323 30.7595 21.0769C30.7595 22.3213 31.7645 23.3338 32.9995 23.3338C34.2346 23.3338 35.2396 22.3213 35.2396 21.0769C35.2396 19.8323 34.2346 18.8199 32.9995 18.8199M32.9995 25.4926C30.583 25.4926 28.6169 23.5116 28.6169 21.077C28.6169 18.6419 30.583 16.6611 32.9995 16.6611C35.416 16.6611 37.3821 18.6419 37.3821 21.077C37.3821 23.5116 35.416 25.4926 32.9995 25.4926" fill="#656F94"/>
<mask id="mask0" mask-type="alpha" maskUnits="userSpaceOnUse" x="20" y="14" width="80" height="12">
<path fill-rule="evenodd" clip-rule="evenodd" d="M20 25.6494H99.9653V14H20V25.6494Z" fill="white"/>
</mask>
<g mask="url(#mask0)">
<path fill-rule="evenodd" clip-rule="evenodd" d="M44.4918 25.355H46.6343V14.1763H44.4918V25.355Z" fill="#656F94"/>
<path fill-rule="evenodd" clip-rule="evenodd" d="M49.6724 16.8179L44.5592 21.6794L45.6697 23.818L52.7394 16.8179H49.6724Z" fill="#656F94"/>
<path fill-rule="evenodd" clip-rule="evenodd" d="M53.1101 25.3486L48.3508 18.6514L46.6743 20.0954L50.4121 25.355L53.1101 25.3486Z" fill="#656F94"/>
<path fill-rule="evenodd" clip-rule="evenodd" d="M40.8882 25.355H38.7457V21.077C38.7457 18.6419 40.7116 16.6611 43.1281 16.6611V18.8199C41.8931 18.8199 40.8882 19.8324 40.8882 21.077V25.355Z" fill="#656F94"/>
<path fill-rule="evenodd" clip-rule="evenodd" d="M35.2395 25.3553H37.382V21.2339H35.2395V25.3553Z" fill="#656F94"/>
<path fill-rule="evenodd" clip-rule="evenodd" d="M72.7619 18.8199C71.5269 18.8199 70.522 19.8323 70.522 21.0769C70.522 22.3213 71.5269 23.3338 72.7619 23.3338C73.9971 23.3338 75.002 22.3213 75.002 21.0769C75.002 19.8323 73.9971 18.8199 72.7619 18.8199M72.7619 25.4926C70.3454 25.4926 68.3795 23.5116 68.3795 21.077C68.3795 18.6419 70.3454 16.6611 72.7619 16.6611C75.1786 16.6611 77.1445 18.6419 77.1445 21.077C77.1445 23.5116 75.1786 25.4926 72.7619 25.4926" fill="#656F94"/>
<path fill-rule="evenodd" clip-rule="evenodd" d="M59.3497 25.6494C56.1621 25.6494 53.569 23.0364 53.569 19.8246C53.569 16.6128 56.1621 14 59.3497 14C61.1629 14 62.8945 14.8744 63.9816 16.3389L62.2655 17.6318C61.5708 16.6957 60.5081 16.1588 59.3497 16.1588C57.3435 16.1588 55.7115 17.8032 55.7115 19.8246C55.7115 21.846 57.3435 23.4904 59.3497 23.4904C60.6296 23.4904 61.7921 22.8319 62.4594 21.729L64.2887 22.8525C63.2296 24.6036 61.3831 25.6494 59.3497 25.6494" fill="#656F94"/>
<path fill-rule="evenodd" clip-rule="evenodd" d="M86.8837 21.077C86.8837 23.5119 84.9178 25.4927 82.5011 25.4927C80.0844 25.4927 78.1185 23.5119 78.1185 21.077V16.8179H80.2613V21.077C80.2613 22.3214 81.2659 23.3339 82.5011 23.3339C83.7364 23.3339 84.741 22.3214 84.741 21.077V16.8179H86.8837V21.077Z" fill="#656F94"/>
<path fill-rule="evenodd" clip-rule="evenodd" d="M92.2402 18.8199C91.0051 18.8199 90.0003 19.8323 90.0003 21.0769C90.0003 22.3213 91.0051 23.3338 92.2402 23.3338C93.4754 23.3338 94.4802 22.3213 94.4802 21.0769C94.4802 19.8323 93.4754 18.8199 92.2402 18.8199M92.2402 25.4926C89.8237 25.4926 87.8578 23.5116 87.8578 21.077C87.8578 18.6419 89.8237 16.6611 92.2402 16.6611C94.6568 16.6611 96.6227 18.6419 96.6227 21.077C96.6227 23.5116 94.6568 25.4926 92.2402 25.4926" fill="#656F94"/>
<path fill-rule="evenodd" clip-rule="evenodd" d="M65.2627 25.355H67.4054V14.1763H65.2627V25.355Z" fill="#656F94"/>
<path fill-rule="evenodd" clip-rule="evenodd" d="M94.4801 21.2336H96.6226V14.1763H94.4801V21.2336Z" fill="#656F94"/>
<path fill-rule="evenodd" clip-rule="evenodd" d="M99.9653 24.1782C99.9653 24.9043 99.3812 25.4926 98.6608 25.4926C97.9402 25.4926 97.3563 24.9043 97.3563 24.1782C97.3563 23.4521 97.9402 22.8638 98.6608 22.8638C99.3812 22.8638 99.9653 23.4521 99.9653 24.1782" fill="#656F94"/>
</g>
</svg>
