<svg width="120" height="40" viewBox="0 0 120 40" fill="none" xmlns="http://www.w3.org/2000/svg">
<path d="M50.0095 19.9995L44.7931 16.9855C44.6803 16.9221 44.5424 16.9981 44.5424 17.1375V24.6344C44.5424 24.7737 44.6176 24.8877 44.7305 24.9637L49.9467 27.9776C50.0596 28.0409 50.1976 27.9649 50.1976 27.8257V20.3287C50.1976 20.1894 50.1223 20.0755 50.0095 19.9995Z" fill="#656F94"/>
<path d="M42.8873 15.8832L37.6709 12.8693C37.5581 12.8059 37.4202 12.8819 37.4202 13.0212V24.6845C37.4202 24.7858 37.4954 24.8618 37.5957 24.8618H42.9123C43.0126 24.8618 43.0879 24.7858 43.0879 24.6845V16.2125C43.0753 16.0732 43.0001 15.9465 42.8873 15.8832Z" fill="#656F94"/>
<path d="M30.5487 27.9773L35.765 24.9633C35.8779 24.9 35.9531 24.7734 35.9531 24.634V12.1729C35.9531 12.0463 35.8152 11.9576 35.7023 12.021L30.486 15.0349C30.3732 15.0982 30.2979 15.2249 30.2979 15.3642V27.8253C30.2979 27.9646 30.4359 28.0406 30.5487 27.9773Z" fill="#656F94"/>
<path d="M51.6522 21.2528V24.6721C51.6522 24.7734 51.7274 24.8494 51.8277 24.8494H57.7462C57.9218 24.8494 57.9844 24.6087 57.834 24.5327L51.9155 21.1136C51.7901 21.0376 51.6522 21.1262 51.6522 21.2528Z" fill="#656F94"/>
<path d="M28.58 16.1368L14.0847 24.5329C13.9343 24.6216 13.997 24.8495 14.1725 24.8495H28.6678C28.7681 24.8495 28.8434 24.7735 28.8434 24.6722V16.2888C28.8308 16.1495 28.6929 16.0735 28.58 16.1368Z" fill="#656F94"/>
<path d="M66.5553 14.1743H61.5655C61.5149 14.1743 61.4769 14.2127 61.4769 14.2639V25.928C61.4769 26.0047 61.5529 26.0431 61.6162 26.0047L63.4145 24.956C63.4524 24.9304 63.4651 24.9049 63.4651 24.8537V22.04H66.5676C67.239 22.04 69.3411 21.7714 69.3411 18.1263C69.3282 14.7371 67.6697 14.1871 66.5553 14.1743ZM66.2385 20.275H63.4651V16.1695H66.2385C66.8082 16.1695 67.4033 16.6939 67.4033 18.2031C67.4033 19.6994 66.8593 20.275 66.2385 20.275Z" fill="#656F94"/>
<path d="M95.8467 24.0348C95.8467 24.086 95.8849 24.1243 95.9353 24.1243H97.7335C97.7839 24.1243 97.8221 24.086 97.8221 24.0348V15.3762C97.8221 15.3378 97.7969 15.2994 97.7716 15.2738L95.9735 14.2251C95.9101 14.1868 95.8338 14.2379 95.8338 14.3019V24.0348H95.8467Z" fill="#656F94"/>
<path d="M74.9133 16.208H70.8229C70.7718 16.208 70.7343 16.2463 70.7343 16.2975V17.8323C70.7343 17.8834 70.7718 17.9218 70.8229 17.9218H74.9133C75.154 17.9218 75.3817 17.9858 75.3817 18.3311V19.2775H72.6081C70.9749 19.2775 70.3922 19.8147 70.3922 21.2727V21.7715C70.3922 23.5876 71.1011 24.0737 72.8487 24.0737H77.2813C77.3318 24.0737 77.3699 24.0353 77.3699 23.9841V18.4973C77.3699 16.694 76.6733 16.208 74.9133 16.208ZM72.7226 22.3598C72.482 22.3598 72.2537 22.2959 72.2537 21.9505V21.1192C72.2537 20.7867 72.482 20.7355 72.7349 20.7355H75.3817V22.3598H72.7226Z" fill="#656F94"/>
<path d="M105.876 22.3598H101.786C101.545 22.3598 101.317 22.2959 101.317 21.9505V21.0042H104.091C105.724 21.0042 106.307 20.467 106.307 19.0089V18.5101C106.307 16.694 105.598 16.208 103.85 16.208H101.748C100.026 16.208 99.3292 16.694 99.3292 18.4973V21.7843C99.3292 23.6004 100.038 24.0864 101.786 24.0864H105.876C105.927 24.0864 105.965 24.0481 105.965 23.9969V22.4622C105.965 22.411 105.927 22.3598 105.876 22.3598ZM101.786 17.9474H103.977C104.218 17.9474 104.445 18.0113 104.445 18.3567V19.188C104.445 19.5205 104.218 19.5717 103.964 19.5717H101.317V18.3439C101.317 18.0113 101.545 17.9474 101.786 17.9474Z" fill="#656F94"/>
<path d="M85.9686 18.5101C85.9686 16.694 85.2597 16.208 83.5121 16.208H79.0924C79.0419 16.208 79.0038 16.2463 79.0038 16.2975V23.9841C79.0038 24.0353 79.0419 24.0737 79.0924 24.0737H80.8905C80.941 24.0737 80.9792 24.0353 80.9792 23.9841V17.9346H83.4991C83.7397 17.9346 83.9681 17.9986 83.9681 18.3439V23.9969C83.9681 24.0481 84.0062 24.0864 84.0567 24.0864H85.8548C85.9053 24.0864 85.9434 24.0481 85.9434 23.9969V18.5101H85.9686Z" fill="#656F94"/>
<path d="M87.3114 21.1572V24.0093L94.6689 22.4618C94.6818 22.4618 94.6818 22.4362 94.6689 22.4362L87.3114 21.1572Z" fill="#656F94"/>
<path d="M92.2123 23.2931V24.0733V24.8918C92.2123 25.2499 91.9206 25.5441 91.5662 25.5441H88.413C88.3625 25.5441 88.3243 25.5824 88.3243 25.6336V26.887C88.3243 26.9382 88.3625 26.9765 88.413 26.9765H92.0474C93.2381 26.9765 94.2129 26.0045 94.2129 24.7894V22.8838L92.2123 23.2931Z" fill="#656F94"/>
<path d="M87.3618 20.8506L89.312 21.1959C89.2615 20.9145 89.2363 20.5692 89.2363 20.1727C89.2363 18.395 89.6794 17.9473 90.2997 17.9473H92.2122V21.7075L94.2005 22.0528V16.3102C94.2005 16.259 94.1624 16.2207 94.1119 16.2207H90.0338C88.907 16.2335 87.2855 16.7835 87.2855 20.1727C87.2855 20.4157 87.2985 20.6459 87.3114 20.8506H87.3618Z" fill="#656F94"/>
</svg>
