<svg width="120" height="40" viewBox="0 0 120 40" fill="none" xmlns="http://www.w3.org/2000/svg">
<path fill-rule="evenodd" clip-rule="evenodd" d="M78.0589 14.1538C77.457 14.1538 76.9265 14.6419 76.8737 15.2436C76.821 15.8455 77.2662 16.3335 77.8681 16.3335C78.47 16.3335 79.0006 15.8455 79.0533 15.2436C79.106 14.6419 78.6608 14.1538 78.0589 14.1538Z" fill="#656F94"/>
<path fill-rule="evenodd" clip-rule="evenodd" d="M73.6251 15.9153C73.7995 15.6562 73.8289 15.3357 73.7022 15.0755C73.576 14.8151 73.3126 14.6544 73.0124 14.6544H67.9726V14.6546V14.6544H67.9714L67.9656 14.6448L67.2669 13.665C66.1061 14.4042 63.9462 15.234 61.8593 15.7476L62.2858 17.332C63.369 17.0586 64.4554 16.7107 65.4375 16.33H71.0661C70.277 17.0175 69.0806 17.8409 67.4398 18.4086L65.8085 16.6417L64.5259 17.8327L65.5116 18.9006C64.8063 19.0211 64.0423 19.091 63.2167 19.091H61.5767L61.4302 20.7667H63.0701C70.28 20.7667 73.492 16.1134 73.6251 15.9153Z" fill="#656F94"/>
<path fill-rule="evenodd" clip-rule="evenodd" d="M74.2175 20.0655H71.9987L71.9991 20.0673L71.9977 20.0655L71.2104 18.9609C68.3001 21.1381 63.868 21.9412 61.8803 22.2036L62.3152 23.8195C64.0412 23.5742 66.9806 23.0025 69.6548 21.7412H72.8868C72.3308 22.6183 71.1428 24.1222 69.0693 25.1692L67.1842 23.1272L65.9016 24.3182L67.3225 25.8573C66.3218 26.1514 65.1749 26.333 63.8624 26.333L60.9387 26.3452L60.799 28.0208L63.7193 28.0086C71.5435 28.0086 74.4608 22.3331 74.7679 21.6857C74.8864 21.4355 74.9585 21.1723 74.982 20.9034C75.0227 20.4408 74.6803 20.0655 74.2175 20.0655Z" fill="#656F94"/>
<path fill-rule="evenodd" clip-rule="evenodd" d="M87.2146 24.079L83.9535 20.5465C83.9719 20.4988 83.9902 20.4507 84.0082 20.402C84.0537 20.2781 84.099 20.1085 84.1547 19.8528C84.2732 19.3096 84.3395 18.6458 84.393 18.1122L84.4798 17.1958H82.8042L82.7192 18.0909C82.6703 18.5808 82.6091 19.1901 82.5121 19.6357C82.4596 19.8764 82.4348 19.9478 82.4342 19.9496C82.1157 20.8159 81.8078 21.4511 79.5976 23.4901L78.934 24.0609L79.9674 25.2882L80.6439 24.7065L80.6685 24.6845C81.8547 23.5909 82.5797 22.8276 83.0687 22.1686L85.932 25.27L87.2146 24.079Z" fill="#656F94"/>
<mask id="mask0" mask-type="alpha" maskUnits="userSpaceOnUse" x="80" y="14" width="11" height="15">
<path fill-rule="evenodd" clip-rule="evenodd" d="M80.6215 14.4067H90.5025V28.0195H80.6215V14.4067Z" fill="white"/>
</mask>
<g mask="url(#mask0)">
<path fill-rule="evenodd" clip-rule="evenodd" d="M88.0472 14.4067H80.7682L80.6215 16.0824H87.9007C88.4499 16.0824 88.8612 16.4887 88.8175 16.9879L88.0779 25.4383C88.0344 25.9376 87.5519 26.3439 87.0029 26.3439H85.4916L85.3451 28.0195H86.8564C88.3294 28.0195 89.6292 26.8616 89.7537 25.4383L90.4929 16.9879C90.6174 15.5647 89.5204 14.4067 88.0472 14.4067Z" fill="#656F94"/>
</g>
<path fill-rule="evenodd" clip-rule="evenodd" d="M76.0122 28.0205H77.6878L78.5672 17.9751H76.8915L76.0122 28.0205Z" fill="#656F94"/>
<path fill-rule="evenodd" clip-rule="evenodd" d="M50.3026 13.1885C50.3026 13.8551 50.843 14.3955 51.5098 14.3955V14.3955C52.1765 14.3955 52.7169 13.8551 52.7169 13.1885V13.1885C52.7169 12.5218 52.1765 11.9814 51.5098 11.9814V11.9814C50.843 11.9814 50.3026 12.5218 50.3026 13.1885M37.2793 8.65918H50.4411C53.5228 8.65918 56.0441 11.1805 56.0441 14.2622V27.424C56.0441 30.5057 53.5228 33.0271 50.4411 33.0271H37.2793C34.1976 33.0271 31.6761 30.5057 31.6761 27.424V14.2622C31.6761 11.1805 34.1976 8.65918 37.2793 8.65918M36.7018 20.8429C36.7018 22.8072 37.4977 24.5891 38.7833 25.8839V25.8839L37.9276 26.7385C39.2668 27.4844 41.8985 28.0013 43.8601 28.0013V28.0013C47.8073 28.0013 51.0185 24.7901 51.0185 20.8429V20.8429C51.0185 16.896 47.8073 13.6846 43.8601 13.6846V13.6846C39.913 13.6846 36.7018 16.896 36.7018 20.8429V20.8429ZM40.6323 24.0379C39.8192 23.2163 39.3159 22.0875 39.3159 20.8429V20.8429C39.3159 18.3373 41.3545 16.2989 43.8601 16.2989V16.2989C46.3658 16.2989 48.4044 18.3373 48.4044 20.8429V20.8429C48.4044 23.3486 46.3658 25.3872 43.8601 25.3872V25.3872C42.6194 25.3872 41.5459 25.2611 39.8632 24.8072V24.8072L40.6323 24.0379Z" fill="#656F94"/>
</svg>
