<svg width="120" height="40" viewBox="0 0 120 40" fill="none" xmlns="http://www.w3.org/2000/svg">
<g clip-path="url(#clip0)">
<path fill-rule="evenodd" clip-rule="evenodd" d="M81.5409 16.2199V14.1111L76.7239 13.4297V15.5385L81.5409 16.2199Z" fill="#656F94"/>
<path fill-rule="evenodd" clip-rule="evenodd" d="M76.7239 16.9985V19.1074L81.5409 19.7888V17.68L76.7239 16.9985Z" fill="#656F94"/>
<path fill-rule="evenodd" clip-rule="evenodd" d="M75.4652 23.1388H89.065V21.2495H75.4652V23.1388Z" fill="#656F94"/>
<path fill-rule="evenodd" clip-rule="evenodd" d="M46.0216 23.1388H58.1975V21.2495H46.0216V23.1388Z" fill="#656F94"/>
<path fill-rule="evenodd" clip-rule="evenodd" d="M61.3746 15.319H73.5505V13.4297H61.3746V15.319Z" fill="#656F94"/>
<path fill-rule="evenodd" clip-rule="evenodd" d="M61.3746 27.401H73.5505V25.5117H61.3746V27.401Z" fill="#656F94"/>
<path fill-rule="evenodd" clip-rule="evenodd" d="M61.3746 21.2492H70.3772V19.3599H61.3746V21.2492Z" fill="#656F94"/>
<path fill-rule="evenodd" clip-rule="evenodd" d="M90.9777 23.1388H104.577V21.2495H90.9777V23.1388Z" fill="#656F94"/>
<path fill-rule="evenodd" clip-rule="evenodd" d="M93.9271 15.319H103.822V13.4297H93.9271V15.319Z" fill="#656F94"/>
<path fill-rule="evenodd" clip-rule="evenodd" d="M57.9238 23.4915L58.1991 23.182V21.2534H55.9829V22.353C55.3466 23.0523 53.6363 24.9047 51.1421 27.4011H54.2369C56.5554 25.0259 57.9055 23.5121 57.9238 23.4915Z" fill="#656F94"/>
<path fill-rule="evenodd" clip-rule="evenodd" d="M85.3006 12.9575H83.1348C83.0778 17.2174 83.0193 19.6156 82.241 21.2941C81.452 22.9962 79.7707 24.3522 76.4217 27.0542C76.2823 27.1665 76.1385 27.2826 75.9916 27.4013H79.4032C84.9617 22.8336 85.1797 21.79 85.3006 12.9575Z" fill="#656F94"/>
<path fill-rule="evenodd" clip-rule="evenodd" d="M86.9637 24.0835H84.3503L86.4506 27.4013H89.0641L86.9637 24.0835Z" fill="#656F94"/>
<mask id="mask0" mask-type="alpha" maskUnits="userSpaceOnUse" x="99" y="24" width="6" height="4">
<path d="M99.8778 24.0835H104.592V27.4013H99.8778V24.0835Z" fill="#656F94"/>
</mask>
<g mask="url(#mask0)">
<path fill-rule="evenodd" clip-rule="evenodd" d="M102.491 24.0835H99.8778L101.978 27.4013H104.592L102.491 24.0835Z" fill="#656F94"/>
</g>
<path fill-rule="evenodd" clip-rule="evenodd" d="M95.6996 24.0835H93.0863L90.9861 27.4013H93.5992L95.6996 24.0835Z" fill="#656F94"/>
<path fill-rule="evenodd" clip-rule="evenodd" d="M96.6539 27.4009H98.8703V20.1743H96.6539V27.4009Z" fill="#656F94"/>
<path fill-rule="evenodd" clip-rule="evenodd" d="M44.8516 17.7063V20.1756C49.5103 17.8486 52.2326 15.4956 53.7047 12.4844H51.1649C49.9268 14.4102 47.9221 16.0611 44.8516 17.7063Z" fill="#656F94"/>
<path fill-rule="evenodd" clip-rule="evenodd" d="M53.2384 12.8677L51.4053 14.097C53.0999 16.5597 56.4949 18.674 59.4595 20.1704V17.6963C56.4663 16.0806 54.2949 14.4029 53.2384 12.8677Z" fill="#656F94"/>
<path fill-rule="evenodd" clip-rule="evenodd" d="M50.3363 17.5962V19.705L54.3533 20.2623V18.1534L50.3363 17.5962Z" fill="#656F94"/>
<path fill-rule="evenodd" clip-rule="evenodd" d="M101.829 13.4297V14.7554C100.568 15.761 98.0204 17.4448 90.9777 18.6147V20.6303C99.5327 19.2533 102.45 16.8419 103.822 15.6277V13.4297H101.829Z" fill="#656F94"/>
<path fill-rule="evenodd" clip-rule="evenodd" d="M93.4692 14.6163C93.3752 14.5475 93.2857 14.4819 93.1995 14.4199L91.3569 15.5155C91.3569 15.5155 92.1791 16.1479 92.2683 16.2131C93.7743 17.3167 96.5244 19.3313 104.577 20.6313V18.6155C97.2621 17.3949 94.8176 15.6043 93.4692 14.6163Z" fill="#656F94"/>
<path fill-rule="evenodd" clip-rule="evenodd" d="M91.3569 15.5161L93.2197 16.7236L95.4619 13.43L93.4128 12.4854L91.3569 15.5161Z" fill="#656F94"/>
<path fill-rule="evenodd" clip-rule="evenodd" d="M61.3746 27.4011H63.5908V13.4297H61.3746V27.4011Z" fill="#656F94"/>
<path fill-rule="evenodd" clip-rule="evenodd" d="M71.3335 27.4011H73.5498V13.4297H71.3335V27.4011Z" fill="#656F94"/>
<path d="M35.8295 32.1038H19.6663C17.3407 32.1038 15.454 30.2366 15.454 27.9481V11.994C15.454 9.70632 17.3407 7.83887 19.6663 7.83887H35.8295C38.1547 7.83887 40.0419 9.70633 40.0419 11.994V27.9481C40.0419 30.2366 38.1547 32.1038 35.8295 32.1038Z" stroke="#656F94" stroke-width="0.5"/>
<path fill-rule="evenodd" clip-rule="evenodd" d="M40.2931 26.6556L15.2052 27.9499V13.2879L40.2931 11.9937V26.6556ZM28.3545 16.5993L28.3541 16.5991L29.8189 14.3701L31.2786 14.966L31.2783 14.9665L35.8162 14.7324L37.2354 14.6592H37.2359V16.2207C36.7944 16.6332 36.1282 17.2309 34.9685 17.8814C35.7715 18.0446 36.6984 18.1928 37.7728 18.3161V19.7486C35.698 19.5215 34.1173 19.2026 32.8939 18.8535C31.6553 19.3411 30.0869 19.8225 28.0852 20.2471V18.815C29.1348 18.587 30.0442 18.3503 30.8345 18.1114C29.9749 17.7216 29.4217 17.3459 29.0032 17.0617C28.9399 17.0186 28.3541 16.5996 28.3541 16.5996L28.3545 16.5993ZM35.2695 16.1029C34.755 16.4739 34.0282 16.9109 32.9387 17.3662C31.8511 17.0237 31.115 16.6621 30.577 16.3449L35.2695 16.1029ZM22.0422 17.4254V15.9271L18.6104 15.6201V17.1182L22.0422 17.4254ZM18.6104 18.1553V19.6536L22.0422 19.9605V18.4624L18.6104 18.1553ZM17.7148 22.5639L21.6209 22.3624C20.9229 23.1471 19.8936 24.0284 18.3961 25.3103C18.2968 25.3953 18.1942 25.4831 18.0895 25.5729L20.5202 25.4475C22.0104 24.1494 22.9618 23.2337 23.5735 22.2617L27.4039 22.0642V20.7217L24.2075 20.8866C24.6288 19.5431 24.6824 17.8299 24.7217 14.9688L23.1785 15.0484C23.1384 18.0505 23.0969 19.753 22.5564 20.9718L17.7148 21.2216V22.5639ZM37.774 21.5293L33.7071 21.7391V24.7671L32.1282 24.8486V21.8206L28.0852 22.0292V20.6867L32.1282 20.4782V19.7143L33.7071 19.6328V20.3968L37.774 20.187V21.5293ZM24.0441 22.9087L25.906 22.8125L27.4021 25.0926L25.5404 25.1886L24.0441 22.9087ZM36.2884 22.2764L34.4266 22.3725L35.923 24.6525L37.7847 24.5565L36.2884 22.2764ZM29.5872 22.622L31.4489 22.5259L29.9525 24.9603L28.0908 25.0565L29.5872 22.622Z" fill="#656F94"/>
</g>
<defs>
<clipPath id="clip0">
<rect width="89.4622" height="25.0494" fill="white" transform="translate(15.2045 7.37744)"/>
</clipPath>
</defs>
</svg>
