<svg width="24" height="24" viewBox="0 0 24 24" fill="none" xmlns="http://www.w3.org/2000/svg">
<path d="M10.3666 17.5629C11.9384 17.5629 13.4061 17.0516 14.5991 16.1994L19.0873 20.6875C19.2956 20.8958 19.5702 21 19.8543 21C20.4697 21 20.9148 20.5266 20.9148 19.9206C20.9148 19.6365 20.8201 19.3714 20.6118 19.1631L16.152 14.6938C17.0894 13.4629 17.6481 11.9385 17.6481 10.2814C17.6481 6.27617 14.3719 3 10.3666 3C6.35191 3 3.08521 6.27617 3.08521 10.2814C3.08521 14.2867 6.35191 17.5629 10.3666 17.5629ZM10.3666 15.9911C7.2325 15.9911 4.65701 13.4061 4.65701 10.2814C4.65701 7.15676 7.2325 4.5718 10.3666 4.5718C13.4913 4.5718 16.0763 7.15676 16.0763 10.2814C16.0763 13.4061 13.4913 15.9911 10.3666 15.9911Z" fill="#667093"/>
</svg>
